/* XPM */
static char *result[] = {
/* columns rows colors chars-per-pixel */
"64 64 217 2 ",
"   c #010101",
".  c #0C0C0C",
"X  c #141414",
"o  c gray11",
"O  c #150600",
"+  c #2B1500",
"@  c #2E1B01",
"#  c #241402",
"$  c #331B00",
"%  c #3C1E00",
"&  c #2F210D",
"*  c #342104",
"=  c #3D2503",
"-  c #3F2905",
";  c #352409",
":  c #3E2A0A",
">  c #3B2709",
",  c #3D2C12",
"<  c #3D2D1A",
"1  c #3E321E",
"2  c #232323",
"3  c #2C2C2C",
"4  c #343434",
"5  c #3A3A3A",
"6  c #422A05",
"7  c #432C0B",
"8  c #462703",
"9  c #532C00",
"0  c #49310D",
"q  c #46310D",
"w  c #5A3402",
"e  c #56350B",
"r  c #412E13",
"t  c #4B3512",
"y  c #44331D",
"u  c #4C3519",
"i  c #4A3616",
"p  c #523C1B",
"a  c #583C17",
"s  c #673B01",
"d  c #6A3E09",
"f  c #4C3C25",
"g  c #4C3D2B",
"h  c #443724",
"j  c #533E24",
"k  c #59411E",
"l  c #6D440C",
"z  c #6E4206",
"x  c #7A4703",
"c  c #684619",
"v  c #724C18",
"b  c #78521D",
"n  c #554122",
"m  c #5B4423",
"M  c #54422B",
"N  c #5D492B",
"B  c #5B4729",
"V  c #574835",
"C  c #4B4334",
"Z  c #634C2D",
"A  c #6C4E2C",
"S  c #684B24",
"D  c #745223",
"F  c #7B5522",
"G  c #72532C",
"H  c #7C592C",
"J  c #624E30",
"K  c #654F36",
"L  c #665234",
"P  c #695334",
"I  c #65533C",
"U  c #6B573A",
"Y  c #6C5A3D",
"T  c #745632",
"R  c #7B5C34",
"E  c #755B3C",
"W  c #7A5D3B",
"Q  c #755936",
"!  c #7D613D",
"~  c #484848",
"^  c #6D5B43",
"/  c #655846",
"(  c #745E43",
")  c #655C51",
"_  c #6E614C",
"`  c #736246",
"'  c #7B6343",
"]  c #76654A",
"[  c #7A674C",
"{  c #7F6849",
"}  c #7C6C53",
"|  c #766654",
" . c #7F7056",
".. c #7A6F63",
"X. c #7C7265",
"o. c gray47",
"O. c gray40",
"+. c #8C4E00",
"@. c #854B02",
"#. c #8D5101",
"$. c #8B550A",
"%. c #945402",
"&. c #985B07",
"*. c #83561B",
"=. c #865919",
"-. c #935C17",
";. c #934F00",
":. c #A35C00",
">. c #A75E06",
",. c #9C641A",
"<. c #95621B",
"1. c #AB6608",
"2. c #B66804",
"3. c #BF710A",
"4. c #A56819",
"5. c #BD7A1B",
"6. c #B97317",
"7. c #B06F14",
"8. c #885D26",
"9. c #825E33",
"0. c #8B6229",
"q. c #95682B",
"w. c #996728",
"e. c #836134",
"r. c #82633C",
"t. c #8C6A3E",
"y. c #8A6739",
"u. c #946C37",
"i. c #9D723C",
"p. c #A76E25",
"a. c #AD7529",
"s. c #BA7B26",
"d. c #A87635",
"f. c #B17D36",
"g. c #C87508",
"h. c #C87C18",
"j. c #C37E24",
"k. c #836644",
"l. c #856944",
"z. c #8B6C44",
"x. c #846B4B",
"c. c #896D4A",
"v. c #936E41",
"b. c #8D714E",
"n. c #93744C",
"m. c #997546",
"M. c #826D55",
"N. c #82735B",
"B. c #8D7556",
"V. c #927653",
"C. c #9C7B54",
"Z. c #957B5A",
"A. c #997E5C",
"S. c #947956",
"D. c #A37E53",
"F. c #A97E46",
"G. c #877861",
"H. c #8A7B64",
"J. c #8D7E68",
"K. c #817565",
"L. c #937D63",
"P. c #BC8133",
"I. c #D3841A",
"U. c #C68329",
"Y. c #D48B28",
"T. c #C98A36",
"R. c #D69339",
"E. c #9E805B",
"W. c #A58153",
"Q. c #A4845A",
"!. c #B4874C",
"~. c #8F826B",
"^. c #9D8262",
"/. c #97846C",
"(. c #958974",
"). c #988973",
"_. c #968978",
"`. c #AC8C65",
"'. c #A48967",
"]. c #A38E74",
"[. c #A08F7A",
"{. c #AA9273",
"}. c #A7937D",
"|. c #B39777",
" X c #B0936B",
".X c #C98E42",
"XX c #D09A53",
"oX c #DDA252",
"OX c #E2B273",
"+X c #878787",
"@X c #A09482",
"#X c #A69B8A",
"$X c #AA9D8D",
"%X c #A79986",
"&X c #AB9F90",
"*X c #B39C81",
"=X c #B9A284",
"-X c #ADA393",
";X c #B4AA9C",
":X c #BAA890",
">X c #BCB3A7",
",X c gray63",
"<X c #C3BCAF",
"1X c #C9C2B8",
"2X c #D0C9BF",
"3X c #D2CDC4",
"4X c #D9D4CC",
"5X c #D6D1C9",
"6X c #DEDAD4",
"7X c #DAD8D5",
"8X c #E1DED8",
"9X c #E4E1DC",
"0X c #E9E6E2",
"qX c #EDEBE7",
"wX c white",
"eX c #F4F2F1",
"rX c None",
/* pixels */
"rXrXrXrXrXrXrXrXrXrXrXrXrXrXrXrXrXrXrXrXrXrXrXrXrXrXrXrXrXrXrXrXrXrXrXrXrXrXrXrXrXrXrXrXrXrXrXrXrXrXrXrXrXrXrXrXrXrXrXrXrXrXrXrX",
"rXrXrXrXrXrXrXrXrXrXrXrXrXrXrXrXrXrXrXrXrXrXrXrXrXrXrXrXrXrXrXrXrXrXrXrXrXrXrXrXrXrXrXrXrXrXrXrXrXrXrXrXrXrXrXrXrXrXrXrXrXrXrXrX",
"rXrXrXrXrXrXrXrXrXrXrXrXrXrXrXrXrXrXrXrXrXrXrXrXrXrXrX6 0 t t rXrXrXrXrXrXrXrXrXrXrXrXrXrXrXrXrXrXrXrXrXrXrXrXrXrXrXrXrXrXrXrXrX",
"rXrXrXrXrXrXrXrXrXrXrXrXrXrXrXrXrXrXrXrXrXrXrXrXrXrXrX6 } [ p 7 i 0 7 rXrXrXrXrXrXrXrXrXrXrXrXrXrXrXrXrXrXrXrXrXrXrXrXrXrXrXrXrX",
"rXrXrXrXrXrXrXrXrXrXrXrXrXrXrXrXrXrXrXrXrXrXrXrXrXrX6 r wXwXN.6XwXN.n 6 p rXrXrXrXrXrXrXrXrXrXrXrXrXrXrXrXV V rXrXrXrXrXrXrXrXrX",
"rXrXrXrXrXrXrXrXrXrXrXrXrXrXrXrXrXrXrXrXrXrXrXrXrXrX6 ~.wXwXY wXwXwX] -X] t 7 rXrXrXrXrXrXrXrXrXrXrXrX7 6 _ wXY rXrXrXrXrXrXrXrX",
"rXrXrXrXrXrXrXrXrXrXrXrXrXrXrXrXrXrXrXrXrXrXrXrXrX6 7 0XwX3X} wXwXrX` wXwXJ Z rXrXrXrXrXrXrXrXrXrX- - u ` wXwXwXU rXrXrXrXrXrXrX",
"rXrXrXrXrXrXrXrXrXrXrXrXrXrXrXrXrXrXrXrXrXrXrXrXrX= u wXwXB p 4XwX`  .wXwXN.U t rXrXrXrXrXrXrX: - i U ~.` wXwXwXwXk rXrXrXrXrXrX",
"rXrXrXrXrXrXrXrXrXrXrXrXrXrXrXrXrXrXrXrXrXrXrXrX- = U wXrXJ.` } %XJ 5XwX` } wXi rXrXrXrXrXrX- 7 ~.wXwXwX] ` rX@XY #Xp rXrXrXrXrX",
"rXrXrXrXrXrXrXrXrXrXrXrXrXrXrXrXrXrXrXrXrXrXrXrX= H.;X} ^ L 5XwXwXL } 3X} 9XwXn rXrXrXrXM u / wXwXwXwXwX;X@X` @XwXwX#X@XrXrXrXrX",
"rXrXrXrXrXrXrXrXrXrXrXrXrXrXrXrXrXrXrXrXrXrXrXrX- >XwX4XL L wXwX3X] } Z ] wXwXL rXrXrX7 7 0X>X6XwXrXrXrXrX} U wXwXwXwXU rXrXrXrX",
"rXrXrXrXrXrXrXrXrXrXrXrXrXrXrXrXrXrXrXrXrXrXrX- 7 8XwXwXB m @XrXL -XrXU p rXrXZ rXrXu u 3XwXwX} rXrXrX} p rXwXwXwXwXwX} rXrXrXrX",
"rXrXrXrXrXrXrXrXrXrXrXrXrXrXrXrXrXrXrXrXrXrXrX= p 4XwXrXH.U #XZ J.wXwX` m } } 6 - f ) wXwXwXwXwXY 3X} B N.wXwXwXwXrXrXN rXrXrXrX",
"rXrXrXrXrXrXrXrXrXrXrXrXrXrXrXrXrXrXrXrXrXrXrX- N } ` rXY wXwX6X(.wXwX@X@X3Xh r q 1XwXwXwXwXwXwX@Xt <X9XN.wXwXrXrXrXJ.p Z rXrXrX",
"rXrXrXrXrXrXrXrXrXrXrXrXrXrXrXrXrXrXrXrXrXrXrX= >XwX .&XY wXrX[ 6XrXG.G.rX7 r wX-X[.wXwXrXrX@X(.wXwXwXwX[ rXrXrX` } } (.(.rXrXrX",
"rXrXrXrXrXrXrXrXrXrXrXrXrXrXrXrXrXrXrXrXrXrXrX= wXwXwXL G.wXrXp ^ L M.n - r 9XwXwXn rXrXrX@X` qXwXwXwXrX} 3X@X@X[ 9XwX@X@XrXrXrX",
"rXrXrXrXrXrXrXrXrXrXrXrXrXrXrXrXrXrXrXrXrXrX6 - wXwXwXi m } Z L wX4X(.> r eXwXwXwX#X@XrXG.Z wXwXwXwXrXrXJ.N ` @XwXwXwX8X} rXrXrX",
"rXrXrXrXrXrXrXrXrXrXrXrXrXrXrXrXrXrXrXrXrXrX= 6 8XwXwX@X%X8Xn (.wXwXy - ` wXwXrXwXwXZ L Y H.wXwXrXrXrX` J U } rXwXrXrX6X} rXrXrX",
"rXrXrXrXrXrXrXrXrXrXrXrXrXrXrXrXrXrXrXrXrXrX= 6 N.} N J 8XwXJ.@XrXZ 7 wXwX( rXrX3X} @X$XwX-XZ rXrX3XY ~.wXwX@XN rXrXrX3X} rXrXrX",
"rXrXrXrXrXrXrXrXrXrXrXrXrXrXrXrXrXrXrXrXrXrX- n wXwXrXY wXwX} 3XJ.= C wXwX@Xq ] J.9XwXwXwXwXrXL @XJ.wXwXwXwXwX` 3XrXrX} rXrXrXrX",
"rXrXrXrXrXrXrXrXrXrXrXrXrXrXrXrXrXrXrXrXrXrX: } wXwX3X} rXrXL rXC , wXwXrX@XU 0XwXwXwXwXrX@XJ ] G.2XwXrXrXrXwXwXY ` @XL rXrXrXrX",
"rXrXrXrXrXrXrXrXrXrXrXrXrXrXrXrXrXrXrXrXrXrX- @XwXrXm @X3XU Z y - -XwXrXm p ;XwXwXwXrXrXJ ~.#XwX1X1XrXrXrXrX] [.Z n N.rXrXrXrXrX",
"rXrXrXrXrXrXrXrXrXrXrXrXrXrXrXrXrXrXrXrXrXrX- ` } } n L } Y - > k 5XwX@Xm J.-XN.@XrX} ` @XwXwXwX4X} rXrX@XY -X0XwXH.rXrXrXrXrXrX",
"rXrXrXrXrXrXrXrXrXrXrXrXrXrX4 X rXrXrXrXrXrX- U J.[ [ wXwXN = Y 3X} 3XJ.wXwXwX6XZ 0 N 3XwXwXwXwXwX} J.Y ;XwXwXwXrXY rXrXrXrXrXrX",
"rXrXrXrXrXrXrXrXrXrXrX4 ~ ~     rXrXrXrXrXrX> ` @X&XY wXwX= : rXrX^ N.wXwXwXwXwXJ.p rXrXwXwXrXrX` p M.wXwXwXrXrX@XrXrXrXrXrXrXrX",
"rXrXrXrXrXrXrXrXrX2 o o     .   rXrXrXrXrXrXy wXwX@X@XrXh , rXrXrX} 6XwXwXrX3X` } } 3XrXrXrX` m ` -X3XwXrXrX} rXrXrXrXrXrXrXrXrX",
"rXrXrXrXrXrXrX4 o .   rXrXrXX rXrXrXrXrXrXrX> wXwXY rX, , rXrXrX@X` ` rXrXrX` ` wXY rX3XJ Y #XwX` @XrX-Xp Y rXrXrXrXrXrXrXrXrXrX",
"rXrXrXrXrXrX5 o   rXrXrXrXo   rXrXrXrXrXrXrX: wXrX@XU - Y rXrX@X-XwX@X] rX` @XwXwXU J.} @XrXwXwXm rX} Y rXrXrXrXrXrXrXrXrXrXrXrX",
"rXrXrXrXrX~ o   rXrXrXrXrX4   rXrXrXrXrXrX> , wXrXP = , Y } @XZ wXwXwXN } ` rXwX@Xq 0 3XrXrXJ.} @XrXrXrXrXrXrXrXrXrXrXrXrXrXrXrX",
"rXrXrXrXO.3   rXrXrXrXrXrX3   rXrXrXrXrXrXg } rXrX> 1 3XrX;X} wXwXrX@X@X3XrX@X@X` L 3X@X` N ` @XrXrXrXrXrXrXrXrXrXrXrXrXrXrXrXrX",
"rXrXrX5 o   rXrXrXrXrXrXrX4 X rXrXrXrXrXC.V.e._ / n rXrXrXJ.@XrXrX` ` rXrX@X@XrXJ.p rXrXrXrXrXrXrXrXrXrXrXrXrXrXrXrXrXrXrXrXrXrX",
"rXrXrX    rXrXrXrXrXrXrX9.|.|.Q.|.C.{.^.B.[.).A.m.i.rXrX} } rXrXJ J.rXJ.} @X@X} U rXrXrXrXrXrXrXrXrXrXrXrXrXrXrXrXrXrXrXrXrXrXrX",
"rXrXrXrXrXrXrXrXrXrXA./ K ].:X{.:X'.{.$X/./.[.).E.E.E.m.u.F.a.%X@XZ q n @XrXrXrXrXrXrXrXrXrXrXrXrXrXrXrXrXrXrXrXrXrXrXrXrXrXrXrX",
"rXrXrXrXrXrXrXrXrX^.X.h V M.).M.].'.A.]./.B.x.^.L.*X}.^. X|.`.0.d.q.*.rXrXrXrXrXrXrXrXrXrXrXrXrXrXrXrXrXrXrXrXrXrXrXrXrXrXrXrXrX",
"rXrXrXrXrXrXrXrX|.| V j y g W S.b.c.! r.S.Z.E.z.z.S.'.S.n. XQ.W.`.E.q.q.,.rXrXrXrXrXrXrXrXrXrXrXrXrXrXrXrXrXrXrXrXrXrXrXrXrXrXrX",
"rXrXrXrXrXrXrX X)./ j o u f ( V.L.'.V.x.! x.b.E.'.E.V.S.m.u.D.C.W.m.u.P.6.x + @.:.>.rXrXrXrXrXrXrXrXrXrXrXrXrXrXrXrXrXrXrXrXrXrX",
"rXrXrXrXrXrXrX=Xx.. o.+X  K N P k.k.l.x.E W c.b.A.S.t.A.'.m.D.i.m.w.d..XT.w.M %.g.2.>.;.w % rXrXrXrXrXrXrXrXrXrXrXrXrXrXrXrXrXrX",
"rXrXrXrXrXrX`.=Xy.+X7Xo.  Z E ( [ I Z Y Y R l.b.l.k.r.W l.k.v.Q.D.w.a.j.T.u.x.a.Y.j.oX>.e % 9 %.%.rXrXrXrXrXrXrXrXrXrXrXrXrXrXrX",
"rXrXrXrXrXrX{.*XX +X,X.   P E E / / g g N W b.E.c.' M.S.Z.b.8.m.F.w.-.s.XX`.[.s.R.Y.j.4.k.| *.6.1.x 9 rXrXrXrXrXrXrXrXrXrXrXrXrX",
"rXrXrXrXrXrX'.`.5 ~ 3   9.( b.T Z V g g Z Y ' ' l.! ' B.x.y.G y.u.q.4.g.j.z./.XXOXoXY.&.( ^ p..Xj.$.* 9 rXrXrXrXrXrXrXrXrXrXrXrX",
"rXrXrXrXrXrX=XD.5 3 .   W x.x.W j y rXg G 9.( T A l.W W T 9.9.A 9.,.4.h.j.W 9.g.R.R.T.F.L.H.a.j.5.@.$ w $.rXrXrXrXrXrXrXrXrXrXrX",
"rXrXrXrXrXrXZ.S.r.  y.R E Y K ^ V f rXrXA 9.D a j E z.G Z t.z.Q S &.&.h.>.a <.h.h.Y.h.F.@XJ.a.T.s.8.< e.4.#.rXrXrXrXrXrXrXrXrXrX",
"rXrXrXrXrXrXrXW R T W P K ( V g j rXrXrXA y.W S j Z n.e.Z r.m.W m l &.>.8.m 4.R.oXh.g.t.J.c.s.XX7.E ) n.!.%.w rXrXrXrXrXrXrXrXrX",
"rXrXrXrXrXrXrXD Z A P N K ` V h rXrXrXrXS 9.( S m c n.l.p T i.0.rXl %.%.F A 3.Y.h.h.a.r.K.9.j..Xp.] K.0.P.4.8 * rXrXrXrXrXrXrXrX",
"rXrXrXrXrXrXrXrXrXj Z L m V V rXrXrXrXrXS T rXA S a u.m.rXE {.q.rXrX+.s % s :.g.h.h.-.8 M.4.T.j.b N.~.0. X<.$ $ x rXrXrXrXrXrXrX",
"rXrXrXrXrXrXrXrXrXrXrXrXrXrXrXrXrXrXrXrX*.F rXrXrXrXR v.rXE ].q.rXrXrX9 $ ;.2.2.g.h.V.% d j.j.&.v | J ,.P.e.t 6 c rXrXrXrXrXrXrX",
"rXrXrXrXrXrXrXrXrXrXrXrXrXrXrXrXrXrXrXrXX X rXrXrXrXF 8.rXB x.u.rXrXrXrXw ;.:.:.2.>.e % d s.j.<.c < c p.a.G / [ =.*.rXrXrXrXrXrX",
"rXrXrXrXrXrXrXrXrXrXrXrXrXrXrXrXrXrX3 2 X   rXrXrXrXF F rXrXP t.rXrXrXrXrX;.;.#.>.@.+ 8 +.g.2.d a ; y.`.=.m ..` <.*.rXrXrXrXrXrX",
"rXrXrXrXrXrXrXrXrXrXrXrXrXrXrX5 2 3 X   rXrXrXrXrXrX  -.rXrXP y.rXrXrXrXrXrX+.%.d = + z 1.U.1.w @ i <.p.v / X.A w.b e rXrXrXrXrX",
"rXrXrXrXrXrXrXrXrXrXrXrXrXo 4 2   rXrXrXrXrXrXrXrXo   rXrXrXG u.X rXrXrXrXrXrX+.9 # $ @.1.P.:.9 & n.d.<.e ) / 8.W.9.> rXrXrXrXrX",
"rXrXrXrXrXrXrXrXrXrXrXrXrX    rXrXrXrXrXrXrXrXrX4   rXrXrXrXrX    X 3 rXrXrXrXrXrX$ w &.1.&.s = - -.p.=.6 1 S =.q.S g > rXrXrXrX",
"rXrXrXrXrXrXrXrXrXrXrXrXrXrXrXrXrXrXrXrXrXrX2 2 . rXrXrXrXrXrXrXrXrX. 5 rXrXrXrXrXrX#.%.$.w $ + b P.d.v ; q b w.*.m | , rXrXrXrX",
"rXrXrXrXrXrXrXrXrXrXrXrXrXrXrXrXrXrXrXrXrXrX  . rXrXrXrXrXrXrXrXrXrXrX. 5 4 rXrXrXrXrXrXs + O $ &.,.-.e : c -.d.8.a  .~ rXrXrXrX",
"rXrXrXrXrXrXrXrXrXrXrXrXrXrXrXrXrXrXrXrXrXrXrXrXrXrXrXrXrXrXrXrXrXrXrXrX  X o rXrXrXrXrXrX$ # w $.$.l > n b 0.8.T 0 h < ; rXrXrX",
"rXrXrXrXrXrXrXrXrXrXrXrXrXrXrXrXrXrXrXrXrXrXrXrXrXrXrXrXrXrXrXrXrXrXrXrXrXrX. X   rXrXrXrXrXrX@.x l 6 # i b 0.c ; = ; ; : rXrXrX",
"rXrXrXrXrXrXrXrXrXrXrXrXrXrXrXrXrXrXrXrXrXrXrXrXrXrXrXrXrXrXrXrXrXrXrXrXrXrX  rXrXrXrXrXrXrXrXrXrXe * * k b D q $ @ @ rXrXrXrXrX",
"rXrXrXrXrXrXrXrXrXrXrXrXrXrXrXrXrXrXrXrXrXrXrXrXrXrXrXrXrXrXrXrXrXrXrXrXrXrXrXrXrXrXrXrXrXrXrXrXrXrXrXrXrXF a 7 rXrXrXrXrXrXrXrX",
"rXrXrXrXrXrXrXrXrXrXrXrXrXrXrXrXrXrXrXrXrXrXrXrXrXrXrXrXrXrXrXrXrXrXrXrXrXrXrXrXrXrXrXrXrXrXrXrXrXrXrXrXrXrXrXrXrXrXrXrXrXrXrXrX",
"rXrXrXrXrXrXrXrXrXrXrXrXrXrXrXrXrXrXrXrXrXrXrXrXrXrXrXrXrXrXrXrXrXrXrXrXrXrXrXrXrXrXrXrXrXrXrXrXrXrXrXrXrXrXrXrXrXrXrXrXrXrXrXrX",
"rXrXrXrXrXrXrXrXrXrXrXrXrXrXrXrXrXrXrXrXrXrXrXrXrXrXrXrXrXrXrXrXrXrXrXrXrXrXrXrXrXrXrXrXrXrXrXrXrXrXrXrXrXrXrXrXrXrXrXrXrXrXrXrX",
"rXrXrXrXrXrXrXrXrXrXrXrXrXrXrXrXrXrXrXrXrXrXrXrXrXrXrXrXrXrXrXrXrXrXrXrXrXrXrXrXrXrXrXrXrXrXrXrXrXrXrXrXrXrXrXrXrXrXrXrXrXrXrXrX",
"rXrXrXrXrXrXrXrXrXrXrXrXrXrXrXrXrXrXrXrXrXrXrXrXrXrXrXrXrXrXrXrXrXrXrXrXrXrXrXrXrXrXrXrXrXrXrXrXrXrXrXrXrXrXrXrXrXrXrXrXrXrXrXrX",
"rXrXrXrXrXrXrXrXrXrXrXrXrXrXrXrXrXrXrXrXrXrXrXrXrXrXrXrXrXrXrXrXrXrXrXrXrXrXrXrXrXrXrXrXrXrXrXrXrXrXrXrXrXrXrXrXrXrXrXrXrXrXrXrX",
"rXrXrXrXrXrXrXrXrXrXrXrXrXrXrXrXrXrXrXrXrXrXrXrXrXrXrXrXrXrXrXrXrXrXrXrXrXrXrXrXrXrXrXrXrXrXrXrXrXrXrXrXrXrXrXrXrXrXrXrXrXrXrXrX"
};
