/* XPM */
static char *result[] = {
/* columns rows colors chars-per-pixel */
"64 64 218 2 ",
"   c #010101",
".  c #0C0C0C",
"X  c #141414",
"o  c gray11",
"O  c #150600",
"+  c #2B1500",
"@  c #2E1B01",
"#  c #241402",
"$  c #331B00",
"%  c #3C1E00",
"&  c #2F210D",
"*  c #342104",
"=  c #3D2503",
"-  c #3F2905",
";  c #352409",
":  c #3E2A0A",
">  c #3B2709",
",  c #3D2C12",
"<  c #3D2D1A",
"1  c #3E321E",
"2  c #232323",
"3  c #2C2C2C",
"4  c #343434",
"5  c #3A3A3A",
"6  c #422905",
"7  c #432C0B",
"8  c #472804",
"9  c #532C00",
"0  c #46300D",
"q  c #4B310E",
"w  c #5A3402",
"e  c #56350B",
"r  c #412E13",
"t  c #4B3512",
"y  c #44331C",
"u  c #4A3516",
"i  c #523814",
"p  c #533C1B",
"a  c #5A3D19",
"s  c #673B01",
"d  c #6A3E09",
"f  c #4C3C25",
"g  c #4C3D2B",
"h  c #443725",
"j  c #523E26",
"k  c #56411F",
"l  c #5E421C",
"z  c #6D440C",
"x  c #6E4206",
"c  c #7A4703",
"v  c #684619",
"b  c #724C18",
"n  c #78521D",
"m  c #5B4423",
"M  c #54422B",
"N  c #5D492B",
"B  c #594528",
"V  c #574835",
"C  c #4B4334",
"Z  c #634C2D",
"A  c #6C4E2C",
"S  c #684B24",
"D  c #745223",
"F  c #7B5522",
"G  c #72532C",
"H  c #7C592C",
"J  c #624F31",
"K  c #654F36",
"L  c #665234",
"P  c #6A5334",
"I  c #65533C",
"U  c #6B563A",
"Y  c #6D5A3C",
"T  c #745632",
"R  c #7B5C34",
"E  c #755B3C",
"W  c #7A5D3B",
"Q  c #755936",
"!  c #7D613D",
"~  c #484848",
"^  c #6C5B43",
"/  c #655846",
"(  c #715E44",
")  c #795E41",
"_  c #655C51",
"`  c #6E614C",
"'  c #746246",
"]  c #7B6343",
"[  c #76654A",
"{  c #7A674C",
"}  c #7F6849",
"|  c #7C6C53",
" . c #766654",
".. c #7F7056",
"X. c #7A6F63",
"o. c #7C7265",
"O. c gray47",
"+. c gray40",
"@. c #8C4E00",
"#. c #854B02",
"$. c #8D5101",
"%. c #8B550A",
"&. c #945402",
"*. c #985B07",
"=. c #83561B",
"-. c #865919",
";. c #935C17",
":. c #934F00",
">. c #A35C00",
",. c #A75E06",
"<. c #9C641A",
"1. c #95621B",
"2. c #AB6608",
"3. c #B66804",
"4. c #BF710A",
"5. c #A56819",
"6. c #BD7A1B",
"7. c #B97317",
"8. c #B06F14",
"9. c #885D26",
"0. c #825E33",
"q. c #8B6229",
"w. c #95682B",
"e. c #996728",
"r. c #836134",
"t. c #82633C",
"y. c #8C6A3E",
"u. c #8A6739",
"i. c #946C37",
"p. c #9D723C",
"a. c #A76E25",
"s. c #AD7529",
"d. c #BA7B26",
"f. c #A87635",
"g. c #B17D36",
"h. c #C87508",
"j. c #C87C18",
"k. c #C37E24",
"l. c #836644",
"z. c #856944",
"x. c #8B6C44",
"c. c #846B4B",
"v. c #896D4A",
"b. c #936E41",
"n. c #8D714E",
"m. c #93744C",
"M. c #997546",
"N. c #826D55",
"B. c #806F58",
"V. c #82735B",
"C. c #8D7556",
"Z. c #927653",
"A. c #9C7B54",
"S. c #957B5A",
"D. c #997E5C",
"F. c #947956",
"G. c #A37E53",
"H. c #A97E46",
"J. c #877861",
"K. c #8A7B64",
"L. c #8D7F68",
"P. c #817565",
"I. c #937D63",
"U. c #BC8133",
"Y. c #D3841A",
"T. c #C68329",
"R. c #D48B28",
"E. c #C98A36",
"W. c #D69339",
"Q. c #9E805B",
"!. c #A58153",
"~. c #A4845A",
"^. c #B4874C",
"/. c #8E816A",
"(. c #9D8262",
"). c #97846C",
"_. c #958974",
"`. c #988973",
"'. c #968977",
"]. c #AC8C65",
"[. c #A48967",
"{. c #A38E74",
"}. c #A08F7A",
"|. c #AA9273",
" X c #A7937D",
".X c #B39777",
"XX c #B0936B",
"oX c #C98E42",
"OX c #D09A53",
"+X c #DDA252",
"@X c #E2B273",
"#X c #878787",
"$X c #9F9382",
"%X c #A69B8A",
"&X c #A69987",
"*X c #AB9E90",
"=X c #B39C81",
"-X c #B9A284",
";X c #ADA393",
":X c #B4AA9C",
">X c #BAA890",
",X c #AAA08F",
"<X c #BDB3A6",
"1X c gray63",
"2X c #C4BCAF",
"3X c #C9C3B7",
"4X c #D3CDC3",
"5X c #D6D2C9",
"6X c #DDD9D3",
"7X c #D8D8D4",
"8X c #CDC6C0",
"9X c #E1DDD8",
"0X c #E3E1DC",
"qX c #E9E6E2",
"wX c #EEEBE7",
"eX c white",
"rX c #F4F2F1",
"tX c None",
/* pixels */
"tXtXtXtXtXtXtXtXtXtXtXtXtXtXtXtXtXtXtXtXtXtXtXtXtXtXtXtXtXtXtXtXtXtXtXtXtXtXtXtXtXtXtXtXtXtXtXtXtXtXtXtXtXtXtXtXtXtXtXtXtXtXtXtX",
"tXtXtXtXtXtXtXtXtXtXtXtXtXtXtXtXtXtXtXtXtXtXtXtXtXtXtXtXtXtXtXtXtXtXtXtXtXtXtXtXtXtXtXtXtXtXtXtXtXtXtXtXtXtXtXtXtXtXtXtXtXtXtXtX",
"tXtXtXtXtXtXtXtXtXtXtXtXtXtXtXtXtXtXtXtXtXtXtXtXtXtXtXtXtXtXtXtXtXt t t 6 tXtXtXtXtXtXtXtXtXtXtXtXtXtXtXtXtXtXtXtXtXtXtXtXtXtXtX",
"tXtXtXtXtXtXtXtXtXtXtXtXtXtXtXtXtXtXtXtXtXtXtXtXtXtXtXtXtX7 7 i 0 a [ | 6 tXtXtXtXtXtXtXtXtXtXtXtXtXtXtXtXtXtXtXtXtXtXtXtXtXtXtX",
"tXtXtXtXtXtXtXtXtXV V tXtXtXtXtXtXtXtXtXtXtXtXtXtXtXtXp 7 m J.eX6X..eXeXr - tXtXtXtXtXtXtXtXtXtXtXtXtXtXtXtXtXtXtXtXtXtXtXtXtXtX",
"tXtXtXtXtXtXtXtXY eX' 7 7 tXtXtXtXtXtXtXtXtXtXtXtX7 t ' ;X' eXeXeXY eXeX).= tXtXtXtXtXtXtXtXtXtXtXtXtXtXtXtXtXtXtXtXtXtXtXtXtXtX",
"tXtXtXtXtXtXtXU eXeXeX^ u - - tXtXtXtXtXtXtXtXtXtXN J eXeX' tXeXeX| 4XeXqX7 7 tXtXtXtXtXtXtXtXtXtXtXtXtXtXtXtXtXtXtXtXtXtXtXtXtX",
"tXtXtXtXtXtXk eXeXeXeX' ).U u - 0 tXtXtXtXtXtXtXi U ..eXeX..' eX5Xp N eXeXt - tXtXtXtXtXtXtXtXtXtXtXtXtXtXtXtXtXtXtXtXtXtXtXtXtX",
"tXtXtXtXtXp %XY $XtX' ' eXeXeX/.7 = tXtXtXtXtXtXi eX..' eX5XN &X| ' L.tXeXU - - tXtXtXtXtXtXtXtXtXtXtXtXtXtXtXtXtXtXtXtXtXtXtXtX",
"tXtXtXtX$X&XeXeX$X' &X:XeXeXeXeXeX/ y M tXtXtXtXm eX0X| 4X| I eXeX5XL ^ | :XJ.- tXtXtXtXtXtXtXtXtXtXtXtXtXtXtXtXtXtXtXtXtXtXtXtX",
"tXtXtXtXY eXeXeXeXU | tXtXtXtXeX6X<XqX7 7 tXtXtXL eXeX' J | [ 4XeXeXL P 5XeX<X> tXtXtXtXtXtXtXtXtXtXtXtXtXtXtXtXtXtXtXtXtXtXtXtX",
"tXtXtXtX| eXeXeXeXeXtXp | tXtXtX| eXeX4Xu y tXtXZ tXtXp U tX;XJ tX$Xm B eXeX0X7 - tXtXtXtXtXtXtXtXtXtXtXtXtXtXtXtXtXtXtXtXtXtXtX",
"tXtXtXtXN tXtXeXeXeXeXV.N | 4XY eXeXeXeXeX_ f > > | | m ' eXeXL.Z %XY J.tXeX5Xp - tXtXtXtXtXtXtXtXtXtXtXtXtXtXtXtXtXtXtXtXtXtXtX",
"tXtXtXZ p L.tXtXtXeXeXV.9X2Xq &XeXeXeXeXeXeX3Xq r h 4X$X$XeXeX_.6XeXeXY tX' | N = tXtXtXtXtXtXtXtXtXtXtXtXtXtXtXtXtXtXtXtXtXtXtX",
"tXtXtX_._.| | ' tXtXtX{ eXeXeXeX_.$XtXtXeXeX'.;XeXr 7 tXJ.J.tX6X| tXeXY *XB.eX<X- tXtXtXtXtXtXtXtXtXtXtXtXtXtXtXtXtXtXtXtXtXtXtX",
"tXtXtX$X$XeXqX[ $X$X4X| tXeXeXeXwX' $XtXtXtXm eXeX0X0 > m | L ^ i tXeXJ.L eXeXeX- tXtXtXtXtXtXtXtXtXtXtXtXtXtXtXtXtXtXtXtXtXtXtX",
"tXtXtX| 0XeXeXeX$X' N L.tXtXeXeXeXeXZ J.tX$X%XeXeXeXrXr - _.6XeXL N | m i eXeXeX- - tXtXtXtXtXtXtXtXtXtXtXtXtXtXtXtXtXtXtXtXtXtX",
"tXtXtX| 6XtXtXeXtX| U J ' tXtXtXeXeXJ.Y L J eXeXtXeXeX' = y eXeX_.m 9X&X$XeXeX6X6 - tXtXtXtXtXtXtXtXtXtXtXtXtXtXtXtXtXtXtXtXtXtX",
"tXtXtX| 4XtXtXtXZ $XeXeX).U 4XtXtXZ ;XeX*X$X| 4XtXtX' eXeX7 Z tX$XL.eX9XJ N | V.6 = tXtXtXtXtXtXtXtXtXtXtXtXtXtXtXtXtXtXtXtXtXtX",
"tXtXtXtX| tXtX4X' eXeXeXeXeXL.$XL tXeXeXeXeX0X/.[ 7 $XeXeXC = /.4X| eXeXY tXeXeXp - tXtXtXtXtXtXtXtXtXtXtXtXtXtXtXtXtXtXtXtXtXtX",
"tXtXtXtXJ &X' U eXeXtXtXtXeX3XV.[ L $XtXeXeXeXeXqXY $XtXeXeX, C tXL tXtX| 4XeXeX| : tXtXtXtXtXtXtXtXtXtXtXtXtXtXtXtXtXtXtXtXtXtX",
"tXtXtXtXtXJ.k Z }.[ tXtXtXtX3X3XeX%X/.N tXtXeXeXeX:Xp m tXeX%X: y N U 4X$Xm tXeX&X= tXtXtXtXtXtXtXtXtXtXtXtXtXtXtXtXtXtXtXtXtXtX",
"tXtXtXtXtXtXJ.eXqX;XU &XtXtX| 7XeXeXeX&X' | tX$XV.%XL.m $XeX5Xk = > U V.L m | | ' - tXtXtXtXtXtXtXtXtXtXtXtXtXtXtXtXtXtXtXtXtXtX",
"tXtXtXtXtXtXY tXeXeXeX:XY /.| eXeXeXeXeX4XN q J 6XeXeXeXL.4X| 4XU - N eXeX{ [ L.U - tXtXtXtXtXtXX 4 tXtXtXtXtXtXtXtXtXtXtXtXtXtX",
"tXtXtXtXtXtXtX$XtXtXeXeXeXV.i [ tXtXeXeXtXtXp L.eXeXeXeXeXB.( tXtX, - eXeXY *X$X' > tXtXtXtXtXtX    ~ ~ 4 tXtXtXtXtXtXtXtXtXtXtX",
"tXtXtXtXtXtXtXtXtX| tXtXeX8X;X[ m ' tXtXtX4X| | ( 4XtXeXeX6X| tXtXtX, y tX$X$XeXeXy tXtXtXtXtXtX  .     o o 2 tXtXtXtXtXtXtXtXtX",
"tXtXtXtXtXtXtXtXtXtXY p *XtX$X' eX%XY J 4XtXY eX' ' tXtXtX' ' $XtXtXtX, , tXY eXeX> tXtXtXtXtXtXtXX tXtXtX  . o 5 tXtXtXtXtXtXtX",
"tXtXtXtXtXtXtXtXtXtXtXtXY | tXm eXeXtX$X| L.Y eXeX$X' tX' &XeX;X&XtXtXY = U $XtXeX: tXtXtXtXtXtXtX  o tXtXtXtX  o 4 tXtXtXtXtXtX",
"tXtXtXtXtXtXtXtXtXtXtXtXtXtXtX&X| L.tXtX4Xt 7 $XeXtX' | N eXeXeXZ $X| Y , = P tXeX, > tXtXtXtXtXtX  4 tXtXtXtXtX  o ~ tXtXtXtXtX",
"tXtXtXtXtXtXtXtXtXtXtXtXtXtXtXtX$X' N ' $X4XL ' $X$XtX4X$X$XtXeXeX| :XtX4X1 > tXtX| g tXtXtXtXtXtX  3 tXtXtXtXtXtX  3 +.tXtXtXtX",
"tXtXtXtXtXtXtXtXtXtXtXtXtXtXtXtXtXtXtXtXtXtXp L.tX$X$XtXtX' ' tXtX$X/.tXtXtXM I ` t.n.A.tXtXtXtXtXX 4 tXtXtXtXtXtXtX  o 5 tXtXtX",
"tXtXtXtXtXtXtXtXtXtXtXtXtXtXtXtXtXtXtXtXtXtXtXU | $X$X| L.tX/.J tXtX| | tXtXp.M.S.{.}.C.(.|.A..X~..X.X0.tXtXtXtXtXtXtX    tXtXtX",
"tXtXtXtXtXtXtXtXtXtXtXtXtXtXtXtXtXtXtXtXtXtXtXtXtXtXtX$Xm 7 J $X%Xg.H.i.M.~.Q.Q.{.`.`.).=X X[.>X|.>X{.K / D.tXtXtXtXtXtXtXtXtXtX",
"tXtXtXtXtXtXtXtXtXtXtXtXtXtXtXtXtXtXtXtXtXtXtXtXtXtXtXtXtX=.w.f.e.~.|.|.(. X=XD.I.c.F.).{.S.[.{.N.{.N.V h X.(.tXtXtXtXtXtXtXtXtX",
"tXtXtXtXtXtXtXtXtXtXtXtXtXtXtXtXtXtXtXtXtXtXtXtXtXtXtX<.e.i.G.].!.~.].m.S.).C.x.x.Q.F.F.0.t.c.Z.Z.) g y f V  ..XtXtXtXtXtXtXtXtX",
"tXtXtXtXtXtXtXtXtXtXtXtXtXtXtXtXtXtXtXtXtXtX>.>.#.@ c 7.g.i.M.~.A.G.i.M.A.Z.Q.[.Q.Z.N.W c.Z.[.I.Z.^ g u o a / `.XXtXtXtXtXtXtXtX",
"tXtXtXtXtXtXtXtXtXtXtXtXtXtXtXtXtXtX% 9 :.,.3.h.&.g a.oXoXf.e.M.y.!.A.~.Q.y.F.D.v.c.E W c.z.] l.P Z K   #XO.. } -XtXtXtXtXtXtXtX",
"tXtXtXtXtXtXtXtXtXtXtXtXtXtXtX&.&.9 > w ,.+XR.R.a.c.w.E.k.s.1.!.~.b.y.c.! ! l.x.m.y.R U Y J I ' ) Q K   O.7X#Xu.-X].tXtXtXtXtXtX",
"tXtXtXtXtXtXtXtXtXtXtXtXtX9 c 3.j.=. .t.5.k.R.W.d.}.].OXd.<.e.G.M.q.n.C.C.N.] v.I.n.) Z j g I ^ ^ W K   X 1X#XX =X.XtXtXtXtXtXtX",
"tXtXtXtXtXtXtXtXtXtXtXtX9 * %.d.oXe.^ E *.E.+X@XOX).y.k.h.5.w.i.u.G u.v.Z.] ! l.l.) Y K g g V Z T v.) 0.  3 ~ 5 ].[.tXtXtXtXtXtX",
"tXtXtXtXtXtXtXtXtXtXtX%.e $ #.6.k.s.K.I.H.k.oXW.h.0.0.k.j.5.e.F D H ! G W W z.A T W 0.P f tXy M W c.c.W   . 3 5 A.=XtXtXtXtXtXtX",
"tXtXtXtXtXtXtXtXtXtX$.5.r.y 9.T.E.s.K.&XG.h.W.Y.j.1.l ,.k.,.*.S Q x.y.A G v.E j v S 0.A tXtXf V ^ K ^ E R r.  l.Z.S.tXtXtXtXtXtX",
"tXtXtXtXtXtXtXtXtXw &.^.m./ E 8.OXd.c.L.i.j.Y.+XoX5.m ;.>.&.z Z W M.t.N 0.m.J p v W y.S tXtXtXM j V ( K P R T R ! tXtXtXtXtXtXtX",
"tXtXtXtXtXtXtXtX$ 8 a.U.9.o.[ e.oXj.0.P.) d.h.Y.R.7.A n :.:.z tXq.p.Q p z.M.m m Z ) 0.Z tXtXtXtXh V [ K N P A A D tXtXtXtXtXtXtX",
"tXtXtXtXtXtXtXc @ $ ;.OX9.L.V.n k.k.a.N.> ;.h.j.h.>.s % s @.tXtXw.XXE tXM.b.l v S tXT S tXtXtXtXtXV N M L N j tXtXtXtXtXtXtXtXtX",
"tXtXtXtXtXtXtXv 7 u r.g.<.P  .b ;.k.7.d : Z.j.h.3.3.:.$ 9 tXtXtXw.{.E tXp.R tXtXtXtXF -.tXtXtXtXtXtXtXtXtXtXtXtXtXtXtXtXtXtXtXtX",
"tXtXtXtXtXtX-.n { / D s.a.S y v e.k.k.d $ e ,.3.>.>.:.w tXtXtXtXi.c.B tX9.F tXtXtXtXX X tXtXtXtXtXtXtXtXtXtXtXtXtXtXtXtXtXtXtXtX",
"tXtXtXtXtXtX-.1.[ X.m q.^.t.@ a z 3.h.:.% + c ,.&.@.@.tXtXtXtXtXx.U tXtXF D tXtXtXtX  X 2 3 tXtXtXtXtXtXtXtXtXtXtXtXtXtXtXtXtXtX",
"tXtXtXtXtXi n w.G P./ v a.1.p @ w 2.T.2.x # % s &.@.tXtXtXtXtXtXu.P tXtXq.  tXtXtXtXtXtX  X 3 2 5 tXtXtXtXtXtXtXtXtXtXtXtXtXtXtX",
"tXtXtXtXtX7 0.!.=._ _ e ;.f.Z.@ 9 *.T.2.#.* # 9 :.tXtXtXtXtXtXX w.G tXtXtX  X tXtXtXtXtXtXtXtX  2 4 o tXtXtXtXtXtXtXtXtXtXtXtXtX",
"tXtXtXtX: g Z e.;.Z y 8 =.a.1.7 = s *.2.*.w $ tXtXtXtXtXtX3 o     tXtXtXtXtX  4 tXtXtXtXtXtXtXtXtX    tXtXtXtXtXtXtXtXtXtXtXtXtX",
"tXtXtXtX;  .l -.e.n 7 ; b f.g.%.+ @ w &.&.$.tXtXtXtXtXtX5 . tXtXtXtXtXtXtXtXtX. 2 2 tXtXtXtXtXtXtXtXtXtXtXtXtXtXtXtXtXtXtXtXtXtX",
"tXtXtXtXV X.i r.f.q.v 6 e ;.<.%.$ O # s tXtXtXtXtXtX4 5 . tXtXtXtXtXtXtXtXtXtXtX.   tXtXtXtXtXtXtXtXtXtXtXtXtXtXtXtXtXtXtXtXtXtX",
"tXtXtX; < h q G q.q.b M ; z -.%.w + $ tXtXtXtXtXtXo X   tXtXtXtXtXtXtXtXtXtXtXtXtXtXtXtXtXtXtXtXtXtXtXtXtXtXtXtXtXtXtXtXtXtXtXtX",
"tXtXtX> ; * ; > z 9.b u @ 8 x c #.tXtXtXtXtXtX  X . tXtXtXtXtXtXtXtXtXtXtXtXtXtXtXtXtXtXtXtXtXtXtXtXtXtXtXtXtXtXtXtXtXtXtXtXtXtX",
"tXtXtXtXtX@ @ * q D n l * @ e tXtXtXtXtXtXtXtXtXtX  tXtXtXtXtXtXtXtXtXtXtXtXtXtXtXtXtXtXtXtXtXtXtXtXtXtXtXtXtXtXtXtXtXtXtXtXtXtX",
"tXtXtXtXtXtXtXtX7 a F tXtXtXtXtXtXtXtXtXtXtXtXtXtXtXtXtXtXtXtXtXtXtXtXtXtXtXtXtXtXtXtXtXtXtXtXtXtXtXtXtXtXtXtXtXtXtXtXtXtXtXtXtX",
"tXtXtXtXtXtXtXtXtXtXtXtXtXtXtXtXtXtXtXtXtXtXtXtXtXtXtXtXtXtXtXtXtXtXtXtXtXtXtXtXtXtXtXtXtXtXtXtXtXtXtXtXtXtXtXtXtXtXtXtXtXtXtXtX",
"tXtXtXtXtXtXtXtXtXtXtXtXtXtXtXtXtXtXtXtXtXtXtXtXtXtXtXtXtXtXtXtXtXtXtXtXtXtXtXtXtXtXtXtXtXtXtXtXtXtXtXtXtXtXtXtXtXtXtXtXtXtXtXtX",
"tXtXtXtXtXtXtXtXtXtXtXtXtXtXtXtXtXtXtXtXtXtXtXtXtXtXtXtXtXtXtXtXtXtXtXtXtXtXtXtXtXtXtXtXtXtXtXtXtXtXtXtXtXtXtXtXtXtXtXtXtXtXtXtX",
"tXtXtXtXtXtXtXtXtXtXtXtXtXtXtXtXtXtXtXtXtXtXtXtXtXtXtXtXtXtXtXtXtXtXtXtXtXtXtXtXtXtXtXtXtXtXtXtXtXtXtXtXtXtXtXtXtXtXtXtXtXtXtXtX",
"tXtXtXtXtXtXtXtXtXtXtXtXtXtXtXtXtXtXtXtXtXtXtXtXtXtXtXtXtXtXtXtXtXtXtXtXtXtXtXtXtXtXtXtXtXtXtXtXtXtXtXtXtXtXtXtXtXtXtXtXtXtXtXtX",
"tXtXtXtXtXtXtXtXtXtXtXtXtXtXtXtXtXtXtXtXtXtXtXtXtXtXtXtXtXtXtXtXtXtXtXtXtXtXtXtXtXtXtXtXtXtXtXtXtXtXtXtXtXtXtXtXtXtXtXtXtXtXtXtX",
"tXtXtXtXtXtXtXtXtXtXtXtXtXtXtXtXtXtXtXtXtXtXtXtXtXtXtXtXtXtXtXtXtXtXtXtXtXtXtXtXtXtXtXtXtXtXtXtXtXtXtXtXtXtXtXtXtXtXtXtXtXtXtXtX"
};
