/* XPM */
static char *acdf0ec2ebe347a5830f0f29942c8c43KfWkpHu7dtQ4TXg4[] = {
/* columns rows colors chars-per-pixel */
"64 64 2 1 ",
"  c None",
". c black",
/* pixels */
"                                                                ",
"                                                                ",
"                                                                ",
"                                                                ",
"                          ..                                    ",
"                      . .. .          .                         ",
"                      . .  .          .           .             ",
"                      ..    .....   ........ .    .             ",
"                      .......  .  .    .     .   .              ",
"                       .    . .  .     .     .   .              ",
"                       .   .. .  .     .      . .               ",
"                      ......  . ..     .      . .               ",
"                       .     ...       .       ..               ",
"                       .            .                           ",
"                                 . .                            ",
"                                 . .                            ",
"                                 ...                            ",
"                                 .......                        ",
"                            ..                                  ",
"                           .......                              ",
"                          ..      .                             ",
"                          .        ..                           ",
"                          .          .                          ",
"                         .   .        .                         ",
"                         .  ........  .                         ",
"                         .  .  . . .   .                        ",
"                         .  .... ...   .                        ",
"                          . .          .                        ",
"                          ..  .      ..                         ",
"                            ...   ...                           ",
"                              ....                              ",
"                              .                                 ",
"                              .                                 ",
"                              .                                 ",
"                            ...                                 ",
"                           ....                                 ",
"                         ..   ..                                ",
"                        .     . .                               ",
"                       .      .  .                              ",
"                     ..       .   ..                            ",
"                    .         .     .                           ",
"                   .          .      .                          ",
"                              .       .                         ",
"                              .                                 ",
"                              .                                 ",
"                              .                                 ",
"                              .                                 ",
"                              .                                 ",
"                              .                                 ",
"                              .                                 ",
"                              ..                                ",
"                              ..                                ",
"                             .  .                               ",
"                             .   .                              ",
"                            .     .                             ",
"                           .       .                            ",
"                          .         ..                          ",
"                         .           .                          ",
"                       ..            ..                         ",
"                       .              .                         ",
"                      .                .                        ",
"                     ..                .                        ",
"                    ..                  .                       ",
"                   ..                    .                      "
};
