/* XPM */
static char *ab2820fbd21049fc9973e48907d88a15X3eoejENhMoir8hV[] = {
/* columns rows colors chars-per-pixel */
"64 64 3 1 ",
"  c None",
". c #FF7E00",
"X c #FFC20E",
/* pixels */
"                           XXXXXXXXXXX                          ",
"                        XXXXXXXXXXXXXXXXX                       ",
"                     XXXXXXXXXXXXXXXXXXXXXXX                    ",
"                   XXXXXXXXXXXXXXXXXXXXXXXXXXX                  ",
"                 XXXXXXXXXXXXXXXXXXXXXXXXXXXXXXX                ",
"                XXXXXXXXXXXXXXXXXXXXXXXXXXXXXXXXX               ",
"               XXXXXXXXXXXXXXXXXXXXXXXXXXXXXXXXXXX              ",
"              XXXXXXXXXXXXXXXXXXXXXXXXXXXXXXXXXXXXX             ",
"             XXXXXXXXXXXXXXXXXXXXXXXXXXXXXXXXXXXXXXX            ",
"            XXXXXXXXXXXXXXXXXXXXXXXXXXXXXXXXXXXXXXXXX           ",
"           XXXXXXXXXXXXXXXXXXXXXXXXXXXXXXXXXXXXXXXXXXX          ",
"          XXXXXXXXXXXXXXXXXXXXXXXXXXXXXXXXXXXXXXXXXXXXX         ",
"         XXXXXXXXXXXXXXXXXXXXXXXXXXXXXXXXXXXXXXXXXXXXXXX        ",
"        XXXXXXXXXXXXXXXXXXXXXXXXXXXXXXXXXXXXXXXXXXXXXXXXX       ",
"        XXXXXXXXXXXXXXXXXXXXXXXXXXXXXXXXXXXXXXXXXXXXXXXXX       ",
"       XXXXXXXXXXXXXXXXXXXXXXX.........XXXXXXXXXXXXXXXXXXX      ",
"       XXXXXXXXXXXXXXXXXXXX...XXXXXXXXX...XXXXXXXXXXXXXXXX      ",
"      XXXXXXXXXXXXXXXXXXX..XXXXXXXXXXXXXXX..XXXXXXXXXXXXXXX     ",
"      XXXXXXXXXXXXXXXXXX.XXXXXXXXXXXXXXXXXXX.XXXXXXXXXXXXXX     ",
"     XXXXXXXXXXXXXXXXXX.XXXXXXXXXXXXXXXXXXXXX.XXXXXXXXXXXXXX    ",
"     XXXXXXXXXXXXXXXXX.XXXXXXXXXXXXXXXXXXXXXXX.XXXXXXXXXXXXX    ",
"     XXXXXXXXXXXXXXXX.XXXXXXXXXXXXXXXXXXXXXXXXX.XXXXXXXXXXXX    ",
"    XXXXXXXXXXXXXXXX.XXXXXXXXXXXXXXXXXXXXXXXXXXX.XXXXXXXXXXXX   ",
"    XXXXXXXXXXXXXXX.XXXXXXXXXXXXXXXXXXXXXXXXXXXXX.XXXXXXXXXXX   ",
"    XXXXXXXXXXXXXX.XXXXXXXXXXXXXXXXXXXXXXXXXXXXXXX.XXXXXXXXXX   ",
"    XXXXXXXXXXXXXX.XXXXXXXXXXXXXXXXXXXXXXXXXXXXXXX.XXXXXXXXXX   ",
"   XXXXXXXXXXXXXX.XXXXXXXXXXXXXXXXXXXXXXXXXXXXXXXXX.XXXXXXXXXX  ",
"   XXXXXXXXXXXXXX.XXXXXXXXXXXXXXXXXXXXXXXXXXXXXXXXX.XXXXXXXXXX  ",
"   XXXXXXXXXXXXXX.XXXXXXXXXXXXXXXXXXXXXXXXXXXXXXXXX.XXXXXXXXXX  ",
"   XXXXXXXXXXXXX.XXXXXXXXXXXXXXXXXXXXXXXXXXXXXXXXXXX.XXXXXXXXX  ",
"   XXXXXXXXXXXXX.XXXXXXXXXXXXXXXXXXXXXXXXXXXXXXXXXXX.XXXXXXXXX  ",
"   XXXXXXXXXXXXX.XXXXXXXXXXXXXXXXXXXXXXXXXXXXXXXXXXX.XXXXXXXXX  ",
"   XXXXXXXXXXXXX.XXXXXXXXXXXXXXXXXXXXXXXXXXXXXXXXXXX.XXXXXXXXX  ",
"   XXXXXXXXXXXXX.XXXXXXXXXXXXXXXXXXXXXXXXXXXXXXXXXXX.XXXXXXXXX  ",
"   XXXXXXXXXXXXX.XXXXXXXXXXXXXXXXXXXXXXXXXXXXXXXXXXX.XXXXXXXXX  ",
"   XXXXXXXXXXXXX.XXXXXXXXXXXXXXXXXXXXXXXXXXXXXXXXXXX.XXXXXXXXX  ",
"   XXXXXXXXXXXXX.XXXXXXXXXXXXXXXXXXXXXXXXXXXXXXXXXXX.XXXXXXXXX  ",
"    XXXXXXXXXXXX.XXXXXXXXXXXXXXXXXXXXXXXXXXXXXXXXXXX.XXXXXXXX   ",
"    XXXXXXXXXXXXX.XXXXXXXXXXXXXXXXXXXXXXXXXXXXXXXXX.XXXXXXXXX   ",
"    XXXXXXXXXXXXX.XXXXXXXXXXXXXXXXXXXXXXXXXXXXXXXXX.XXXXXXXXX   ",
"    XXXXXXXXXXXXX.XXXXXXXXXXXXXXXXXXXXXXXXXXXXXXXXX.XXXXXXXXX   ",
"     XXXXXXXXXXXXX.XXXXXXXXXXXXXXXXXXXXXXXXXXXXXXX.XXXXXXXXX    ",
"     XXXXXXXXXXXXX.XXXXXXXXXXXXXXXXXXXXXXXXXXXXXXX.XXXXXXXXX    ",
"     XXXXXXXXXXXXXX.XXXXXXXXXXXXXXXXXXXXXXXXXXXXX.XXXXXXXXXX    ",
"      XXXXXXXXXXXXXX.XXXXXXXXXXXXXXXXXXXXXXXXXXX.XXXXXXXXXX     ",
"      XXXXXXXXXXXXXXX.XXXXXXXXXXXXXXXXXXXXXXXXX.XXXXXXXXXXX     ",
"       XXXXXXXXXXXXXXX.XXXXXXXXXXXXXXXXXXXXXXX.XXXXXXXXXXX      ",
"       XXXXXXXXXXXXXXXX.XXXXXXXXXXXXXXXXXXXXX.XXXXXXXXXXXX      ",
"        XXXXXXXXXXXXXXXX.XXXXXXXXXXXXXXXXXXX.XXXXXXXXXXXX       ",
"        XXXXXXXXXXXXXXXXX..XXXXXXXXXXXXXXX..XXXXXXXXXXXXX       ",
"         XXXXXXXXXXXXXXXXXX...XXXXXXXXX...XXXXXXXXXXXXXX        ",
"          XXXXXXXXXXXXXXXXXXXX.........XXXXXXXXXXXXXXXX         ",
"           XXXXXXXXXXXXXXXXXXXXXXXXXXXXXXXXXXXXXXXXXXX          ",
"            XXXXXXXXXXXXXXXXXXXXXXXXXXXXXXXXXXXXXXXXX           ",
"             XXXXXXXXXXXXXXXXXXXXXXXXXXXXXXXXXXXXXXX            ",
"              XXXXXXXXXXXXXXXXXXXXXXXXXXXXXXXXXXXXX             ",
"               XXXXXXXXXXXXXXXXXXXXXXXXXXXXXXXXXXX              ",
"                XXXXXXXXXXXXXXXXXXXXXXXXXXXXXXXXX               ",
"                 XXXXXXXXXXXXXXXXXXXXXXXXXXXXXXX                ",
"                   XXXXXXXXXXXXXXXXXXXXXXXXXXX                  ",
"                     XXXXXXXXXXXXXXXXXXXXXXX                    ",
"                        XXXXXXXXXXXXXXXXX                       ",
"                           XXXXXXXXXXX                          ",
"                                                                "
};
