/* XPM */
static char *result[] = {
/* columns rows colors chars-per-pixel */
"75 160 9 1 ",
"  c #010A14",
". c #3E6C09",
"X c #5B9F0A",
"o c #6ABD0A",
"O c #BEB61D",
"+ c #D2C91F",
"@ c #EBE020",
"# c #FEF223",
"$ c None",
/* pixels */
"$$$$$$$$$$$$$$$$$$$$$$$$$     $$$$$$$$$$$$$$$$$$$$$$$$$$$$$$$$$$$$$$$$$$$$$",
"$$$$$$$$$$$$$$$$$$$$$$$$$     $$$$$$$$$$$$$$$$$$$$$$$$$$$$$$$$$$$$$$$$$$$$$",
"$$$$$$$$$$$$$$$$$$$$$$$$$     $$$$$$$$$$$$$$$$$$$$$$$$$$$$$$$$$$$$$$$$$$$$$",
"$$$$$$$$$$$$$$$$$$$$$$$$$     $$$$$$$$$$$$$$$$$$$$$$$$$$$$$$$$$$$$$$$$$$$$$",
"$$$$$$$$$$$$$$$$$$$$$$$$$     $$$$$$$$$$$$$$$$$$$$$$$$$$$$$$$$$$$$$$$$$$$$$",
"$$$$$$$$$$$$$$$$$$$$     #####     $$$$$$$$$$$$$$$$$$$$$$$$$$$$$$$$$$$$$$$$",
"$$$$$$$$$$$$$$$$$$$$     #####     $$$$$$$$$$$$$$$$$$$$$$$$$$$$$$$$$$$$$$$$",
"$$$$$$$$$$$$$$$$$$$$     #####     $$$$$$$$$$$$$$$$$$$$$$$$$$$$$$$$$$$$$$$$",
"$$$$$$$$$$$$$$$$$$$$     #####     $$$$$$$$$$$$$$$$$$$$$$$$$$$$$$$$$$$$$$$$",
"$$$$$$$$$$$$$$$$$$$$     #####     $$$$$$$$$$$$$$$$$$$$$$$$$$$$$$$$$$$$$$$$",
"$$$$$$$$$$$$$$$     ###############     $$$$$$$$$$$$$$$$$$$$$$$$$$$$$$$$$$$",
"$$$$$$$$$$$$$$$     ###############     $$$$$$$$$$$$$$$$$$$$$$$$$$$$$$$$$$$",
"$$$$$$$$$$$$$$$     ###############     $$$$$$$$$$$$$$$$$$$$$$$$$$$$$$$$$$$",
"$$$$$$$$$$$$$$$     ###############     $$$$$$$$$$$$$$$$$$$$$$$$$$$$$$$$$$$",
"$$$$$$$$$$$$$$$     ###############     $$$$$$$$$$$$$$$$$$$$$$$$$$$$$$$$$$$",
"$$$$$$$$$$     #####+++++#####+++++#####     $$$$$$$$$$$$$$$$$$$$$$$$$$$$$$",
"$$$$$$$$$$     #####+++++#####+++++#####     $$$$$$$$$$$$$$$$$$$$$$$$$$$$$$",
"$$$$$$$$$$     #####+++++#####+++++#####     $$$$$$$$$$$$$$$$$$$$$$$$$$$$$$",
"$$$$$$$$$$     #####+++++#####+++++#####     $$$$$$$$$$$$$$$$$$$$$$$$$$$$$$",
"$$$$$$$$$$     #####+++++#####+++++#####     $$$$$$$$$$$$$$$$$$$$$$$$$$$$$$",
"$$$$$$$$$$     @@@@@OOOOO#####OOOOO@@@@@     $$$$$$$$$$$$$$$$$$$$$$$$$$$$$$",
"$$$$$$$$$$     @@@@@OOOOO#####OOOOO@@@@@     $$$$$$$$$$$$$$$$$$$$$$$$$$$$$$",
"$$$$$$$$$$     @@@@@OOOOO#####OOOOO@@@@@     $$$$$$$$$$$$$$$$$$$$$$$$$$$$$$",
"$$$$$$$$$$     @@@@@OOOOO#####OOOOO@@@@@     $$$$$$$$$$$$$$$$$$$$$$$$$$$$$$",
"$$$$$$$$$$     @@@@@OOOOO#####OOOOO@@@@@     $$$$$$$$$$$$$$$$$$$$$$$$$$$$$$",
"$$$$$     @@@@@@@@@@OOOOO#####OOOOO#####     $$$$$$$$$$$$$$$$$$$$$$$$$$$$$$",
"$$$$$     @@@@@@@@@@OOOOO#####OOOOO#####     $$$$$$$$$$$$$$$$$$$$$$$$$$$$$$",
"$$$$$     @@@@@@@@@@OOOOO#####OOOOO#####     $$$$$$$$$$$$$$$$$$$$$$$$$$$$$$",
"$$$$$     @@@@@@@@@@OOOOO#####OOOOO#####     $$$$$$$$$$$$$$$$$$$$$$$$$$$$$$",
"$$$$$     @@@@@@@@@@OOOOO#####OOOOO#####     $$$$$$$$$$$$$$$$$$$$$$$$$$$$$$",
"     +++++@@@@@@@@@@@@@@@@@@@@##########     $$$$$$$$$$$$$$$$$$$$$$$$$$$$$$",
"     +++++@@@@@@@@@@@@@@@@@@@@##########     $$$$$$$$$$$$$$$$$$$$$$$$$$$$$$",
"     +++++@@@@@@@@@@@@@@@@@@@@##########     $$$$$$$$$$$$$$$$$$$$$$$$$$$$$$",
"     +++++@@@@@@@@@@@@@@@@@@@@##########     $$$$$$$$$$$$$$$$$$$$$$$$$$$$$$",
"     +++++@@@@@@@@@@@@@@@@@@@@##########     $$$$$$$$$$$$$$$$$$$$$$$$$$$$$$",
"$$$$$     @@@@@OOOOO@@@@@@@@@@@@@@@OOOOO@@@@@     $$$$$$$$$$$$$$$$$$$$$$$$$",
"$$$$$     @@@@@OOOOO@@@@@@@@@@@@@@@OOOOO@@@@@     $$$$$$$$$$$$$$$$$$$$$$$$$",
"$$$$$     @@@@@OOOOO@@@@@@@@@@@@@@@OOOOO@@@@@     $$$$$$$$$$$$$$$$$$$$$$$$$",
"$$$$$     @@@@@OOOOO@@@@@@@@@@@@@@@OOOOO@@@@@     $$$$$$$$$$$$$$$$$$$$$$$$$",
"$$$$$     @@@@@OOOOO@@@@@@@@@@@@@@@OOOOO@@@@@     $$$$$$$$$$$$$$$$$$$$$$$$$",
"$$$$$     ++++++++++OOOOOOOOOOOOOOO@@@@@@@@@@     $$$$$$$$$$$$$$$$$$$$$$$$$",
"$$$$$     ++++++++++OOOOOOOOOOOOOOO@@@@@@@@@@     $$$$$$$$$$$$$$$$$$$$$$$$$",
"$$$$$     ++++++++++OOOOOOOOOOOOOOO@@@@@@@@@@     $$$$$$$$$$$$$$$$$$$$$$$$$",
"$$$$$     ++++++++++OOOOOOOOOOOOOOO@@@@@@@@@@     $$$$$$$$$$$$$$$$$$$$$$$$$",
"$$$$$     ++++++++++OOOOOOOOOOOOOOO@@@@@@@@@@     $$$$$$$$$$$$$$$$$$$$$$$$$",
"     +++++++++++++++++++++++++@@@@@@@@@@@@@@@     $$$$$$$$$$$$$$$$$$$$$$$$$",
"     +++++++++++++++++++++++++@@@@@@@@@@@@@@@     $$$$$$$$$$$$$$$$$$$$$$$$$",
"     +++++++++++++++++++++++++@@@@@@@@@@@@@@@     $$$$$$$$$$$$$$$$$$$$$$$$$",
"     +++++++++++++++++++++++++@@@@@@@@@@@@@@@     $$$$$$$$$$$$$$$$$$$$$$$$$",
"     +++++++++++++++++++++++++@@@@@@@@@@@@@@@     $$$$$$$$$$$$$$$$$$$$$$$$$",
"     ++++++++++++++++++++++++++++++@@@@@     $$$$$$$$$$$$$$$$$$$$$$$$$$$$$$",
"     ++++++++++++++++++++++++++++++@@@@@     $$$$$$$$$$$$$$$$$$$$$$$$$$$$$$",
"     ++++++++++++++++++++++++++++++@@@@@     $$$$$$$$$$$$$$$$$$$$$$$$$$$$$$",
"     ++++++++++++++++++++++++++++++@@@@@     $$$$$$$$$$$$$$$$$$$$$$$$$$$$$$",
"     ++++++++++++++++++++++++++++++@@@@@     $$$$$$$$$$$$$$$$$$$$$$$$$$$$$$",
"$$$$$                                        $$$$$$$$$$$$$$$$$$$$$$$$$$$$$$",
"$$$$$                                        $$$$$$$$$$$$$$$$$$$$$$$$$$$$$$",
"$$$$$                                        $$$$$$$$$$$$$$$$$$$$$$$$$$$$$$",
"$$$$$                                        $$$$$$$$$$$$$$$$$$$$$$$$$$$$$$",
"$$$$$                                        $$$$$$$$$$$$$$$$$$$$$$$$$$$$$$",
"$$$$$$$$$$     XXXXXoooooXXXXXXXXXX     $$$$$$$$$$$$$$$$$$$$$$$$$$$$$$$$$$$",
"$$$$$$$$$$     XXXXXoooooXXXXXXXXXX     $$$$$$$$$$$$$$$$$$$$$$$$$$$$$$$$$$$",
"$$$$$$$$$$     XXXXXoooooXXXXXXXXXX     $$$$$$$$$$$$$$$$$$$$$$$$$$$$$$$$$$$",
"$$$$$$$$$$     XXXXXoooooXXXXXXXXXX     $$$$$$$$$$$$$$$$$$$$$$$$$$$$$$$$$$$",
"$$$$$$$$$$     XXXXXoooooXXXXXXXXXX     $$$$$$$$$$$$$$$$$$$$$$$$$$$$$$$$$$$",
"$$$$$$$$$$     oooooXXXXXXXXXXXXXXX     $$$$$$$$$$$$$$$$$$$$$$$$$$$$$$$$$$$",
"$$$$$$$$$$     oooooXXXXXXXXXXXXXXX     $$$$$$$$$$$$$$$$$$$$$$$$$$$$$$$$$$$",
"$$$$$$$$$$     oooooXXXXXXXXXXXXXXX     $$$$$$$$$$$$$$$$$$$$$$$$$$$$$$$$$$$",
"$$$$$$$$$$     oooooXXXXXXXXXXXXXXX     $$$$$$$$$$$$$$$$$$$$$$$$$$$$$$$$$$$",
"$$$$$$$$$$     oooooXXXXXXXXXXXXXXX     $$$$$$$$$$$$$$$$$$$$$$$$$$$$$$$$$$$",
"$$$$$$$$$$$$$$$     XXXXXooooo     $$$$$$$$$$$$$$$$$$$$$$$$$$$$$$$$$$$$$$$$",
"$$$$$$$$$$$$$$$     XXXXXooooo     $$$$$$$$$$$$$$$$$$$$$$$$$$$$$$$$$$$$$$$$",
"$$$$$$$$$$$$$$$     XXXXXooooo     $$$$$$$$$$$$$$$$$$$$$$$$$$$$$$$$$$$$$$$$",
"$$$$$$$$$$$$$$$     XXXXXooooo     $$$$$$$$$$$$$$$$$$$$$$$$$$$$$$$$$$$$$$$$",
"$$$$$$$$$$$$$$$     XXXXXooooo     $$$$$$$$$$$$$$$$$$$$$$$$$$$$$$$$$$$$$$$$",
"$$$$$$$$$$$$$$$     oooooXXXXX     $$$$$$$$$$$$$$$$$$$$$$$$$$$$$$$$$$$$$$$$",
"$$$$$$$$$$$$$$$     oooooXXXXX     $$$$$$$$$$$$$$$$$$$$$$$$$$$$$$$$$$$$$$$$",
"$$$$$$$$$$$$$$$     oooooXXXXX     $$$$$$$$$$$$$$$$$$$$$$$$$$$$$$$$$$$$$$$$",
"$$$$$$$$$$$$$$$     oooooXXXXX     $$$$$$$$$$$$$$$$$$$$$$$$$$$$$$$$$$$$$$$$",
"$$$$$$$$$$$$$$$     oooooXXXXX     $$$$$$$$$$$$$$$$$$$$$$$$$$$$$$$$$$$$$$$$",
"$$$$$$$$$$$$$$$$$$$$     ooooo     $$$$$$$$$$$$$$$$$$$$$$$$$$$$$$$$$$$$$$$$",
"$$$$$$$$$$$$$$$$$$$$     ooooo     $$$$$$$$$$$$$$$$$$$$$$$$$$$$$$$$$$$$$$$$",
"$$$$$$$$$$$$$$$$$$$$     ooooo     $$$$$$$$$$$$$$$$$$$$$$$$$$$$$$$$$$$$$$$$",
"$$$$$$$$$$$$$$$$$$$$     ooooo     $$$$$$$$$$$$$$$$$$$$$$$$$$$$$$$$$$$$$$$$",
"$$$$$$$$$$$$$$$$$$$$     ooooo     $$$$$$$$$$$$$$$$$$$$$$$$$$$$$$$$$$$$$$$$",
"$$$$$$$$$$$$$$$$$$$$     oooooooooo     $$$$$$$$$$$$$$$$$$$$$$$$$$$$$$$$$$$",
"$$$$$$$$$$$$$$$$$$$$     oooooooooo     $$$$$$$$$$$$$$$$$$$$$$$$$$$$$$$$$$$",
"$$$$$$$$$$$$$$$$$$$$     oooooooooo     $$$$$$$$$$$$$$$$$$$$$$$$$$$$$$$$$$$",
"$$$$$$$$$$$$$$$$$$$$     oooooooooo     $$$$$$$$$$$$$$$$$$$$$$$$$$$$$$$$$$$",
"$$$$$$$$$$$$$$$$$$$$     oooooooooo     $$$$$$$$$$$$$$$$$$$$$$$$$$$$$$$$$$$",
"$$$$$$$$$$$$$$$$$$$$     oooooXXXXXooooo     $$$$$$$$$$$$$$$$$$$$$$$$$$$$$$",
"$$$$$$$$$$$$$$$$$$$$     oooooXXXXXooooo     $$$$$$$$$$$$$$$$$$$$$$$$$$$$$$",
"$$$$$$$$$$$$$$$$$$$$     oooooXXXXXooooo     $$$$$$$$$$$$$$$$$$$$$$$$$$$$$$",
"$$$$$$$$$$$$$$$$$$$$     oooooXXXXXooooo     $$$$$$$$$$$$$$$$$$$$$$$$$$$$$$",
"$$$$$$$$$$$$$$$$$$$$     oooooXXXXXooooo     $$$$$$$$$$$$$$$$$$$$$$$$$$$$$$",
"$$$$$$$$$$$$$$$$$$$$$$$$$     XXXXXooooo     $$$$$$$$$$$$$$$$$$$$          ",
"$$$$$$$$$$$$$$$$$$$$$$$$$     XXXXXooooo     $$$$$$$$$$$$$$$$$$$$          ",
"$$$$$$$$$$$$$$$$$$$$$$$$$     XXXXXooooo     $$$$$$$$$$$$$$$$$$$$          ",
"$$$$$$$$$$$$$$$$$$$$$$$$$     XXXXXooooo     $$$$$$$$$$$$$$$$$$$$          ",
"$$$$$$$$$$$$$$$$$$$$$$$$$     XXXXXooooo     $$$$$$$$$$$$$$$$$$$$          ",
"$$$$$$$$$$$$$$$$$$$$$$$$$$$$$$     ooooo     $$$$$$$$$$$$$$$     ooooo     ",
"$$$$$$$$$$$$$$$$$$$$$$$$$$$$$$     ooooo     $$$$$$$$$$$$$$$     ooooo     ",
"$$$$$$$$$$$$$$$$$$$$$$$$$$$$$$     ooooo     $$$$$$$$$$$$$$$     ooooo     ",
"$$$$$$$$$$$$$$$$$$$$$$$$$$$$$$     ooooo     $$$$$$$$$$$$$$$     ooooo     ",
"$$$$$$$$$$$$$$$$$$$$$$$$$$$$$$     ooooo     $$$$$$$$$$$$$$$     ooooo     ",
"$$$$$$$$$$$$$$$$$$$$$$$$$$$$$$     oooooXXXXX     $$$$$     oooooooooo     ",
"$$$$$$$$$$$$$$$$$$$$$$$$$$$$$$     oooooXXXXX     $$$$$     oooooooooo     ",
"$$$$$$$$$$$$$$$$$$$$$$$$$$$$$$     oooooXXXXX     $$$$$     oooooooooo     ",
"$$$$$$$$$$$$$$$$$$$$$$$$$$$$$$     oooooXXXXX     $$$$$     oooooooooo     ",
"$$$$$$$$$$$$$$$$$$$$$$$$$$$$$$     oooooXXXXX     $$$$$     oooooooooo     ",
"$$$$$$$$$$$$$$$          $$$$$$$$$$     ooooo.....     oooooXXXXX          ",
"$$$$$$$$$$$$$$$          $$$$$$$$$$     ooooo.....     oooooXXXXX          ",
"$$$$$$$$$$$$$$$          $$$$$$$$$$     ooooo.....     oooooXXXXX          ",
"$$$$$$$$$$$$$$$          $$$$$$$$$$     ooooo.....     oooooXXXXX          ",
"$$$$$$$$$$$$$$$          $$$$$$$$$$     ooooo.....     oooooXXXXX          ",
"$$$$$$$$$$     XXXXXooooo     $$$$$     ooooo.....     XXXXXooooo     $$$$$",
"$$$$$$$$$$     XXXXXooooo     $$$$$     ooooo.....     XXXXXooooo     $$$$$",
"$$$$$$$$$$     XXXXXooooo     $$$$$     ooooo.....     XXXXXooooo     $$$$$",
"$$$$$$$$$$     XXXXXooooo     $$$$$     ooooo.....     XXXXXooooo     $$$$$",
"$$$$$$$$$$     XXXXXooooo     $$$$$     ooooo.....     XXXXXooooo     $$$$$",
"$$$$$$$$$$     oooooooooo     $$$$$     ooooo.....oooooXXXXXooooo     $$$$$",
"$$$$$$$$$$     oooooooooo     $$$$$     ooooo.....oooooXXXXXooooo     $$$$$",
"$$$$$$$$$$     oooooooooo     $$$$$     ooooo.....oooooXXXXXooooo     $$$$$",
"$$$$$$$$$$     oooooooooo     $$$$$     ooooo.....oooooXXXXXooooo     $$$$$",
"$$$$$$$$$$     oooooooooo     $$$$$     ooooo.....oooooXXXXXooooo     $$$$$",
"$$$$$$$$$$$$$$$     oooooooooo     .....XXXXX.....oooooXXXXX     $$$$$$$$$$",
"$$$$$$$$$$$$$$$     oooooooooo     .....XXXXX.....oooooXXXXX     $$$$$$$$$$",
"$$$$$$$$$$$$$$$     oooooooooo     .....XXXXX.....oooooXXXXX     $$$$$$$$$$",
"$$$$$$$$$$$$$$$     oooooooooo     .....XXXXX.....oooooXXXXX     $$$$$$$$$$",
"$$$$$$$$$$$$$$$     oooooooooo     .....XXXXX.....oooooXXXXX     $$$$$$$$$$",
"$$$$$$$$$$$$$$$$$$$$     XXXXXooooo.....XXXXX.....oooooXXXXX     $$$$$$$$$$",
"$$$$$$$$$$$$$$$$$$$$     XXXXXooooo.....XXXXX.....oooooXXXXX     $$$$$$$$$$",
"$$$$$$$$$$$$$$$$$$$$     XXXXXooooo.....XXXXX.....oooooXXXXX     $$$$$$$$$$",
"$$$$$$$$$$$$$$$$$$$$     XXXXXooooo.....XXXXX.....oooooXXXXX     $$$$$$$$$$",
"$$$$$$$$$$$$$$$$$$$$     XXXXXooooo.....XXXXX.....oooooXXXXX     $$$$$$$$$$",
"$$$$$$$$$$$$$$$$$$$$$$$$$     ooooo.....XXXXX.....XXXXXooooo     $$$$$$$$$$",
"$$$$$$$$$$$$$$$$$$$$$$$$$     ooooo.....XXXXX.....XXXXXooooo     $$$$$$$$$$",
"$$$$$$$$$$$$$$$$$$$$$$$$$     ooooo.....XXXXX.....XXXXXooooo     $$$$$$$$$$",
"$$$$$$$$$$$$$$$$$$$$$$$$$     ooooo.....XXXXX.....XXXXXooooo     $$$$$$$$$$",
"$$$$$$$$$$$$$$$$$$$$$$$$$     ooooo.....XXXXX.....XXXXXooooo     $$$$$$$$$$",
"$$$$$$$$$$$$$$$$$$$$$$$$$     oooooXXXXXXXXXXXXXXXooooo     $$$$$$$$$$$$$$$",
"$$$$$$$$$$$$$$$$$$$$$$$$$     oooooXXXXXXXXXXXXXXXooooo     $$$$$$$$$$$$$$$",
"$$$$$$$$$$$$$$$$$$$$$$$$$     oooooXXXXXXXXXXXXXXXooooo     $$$$$$$$$$$$$$$",
"$$$$$$$$$$$$$$$$$$$$$$$$$     oooooXXXXXXXXXXXXXXXooooo     $$$$$$$$$$$$$$$",
"$$$$$$$$$$$$$$$$$$$$$$$$$     oooooXXXXXXXXXXXXXXXooooo     $$$$$$$$$$$$$$$",
"$$$$$$$$$$$$$$$$$$$$$$$$$$$$$$          XXXXXooooo     $$$$$$$$$$$$$$$$$$$$",
"$$$$$$$$$$$$$$$$$$$$$$$$$$$$$$          XXXXXooooo     $$$$$$$$$$$$$$$$$$$$",
"$$$$$$$$$$$$$$$$$$$$$$$$$$$$$$          XXXXXooooo     $$$$$$$$$$$$$$$$$$$$",
"$$$$$$$$$$$$$$$$$$$$$$$$$$$$$$          XXXXXooooo     $$$$$$$$$$$$$$$$$$$$",
"$$$$$$$$$$$$$$$$$$$$$$$$$$$$$$          XXXXXooooo     $$$$$$$$$$$$$$$$$$$$",
"$$$$$$$$$$$$$$$$$$$$$$$$$$$$$$$$$$$     ooooo     $$$$$$$$$$$$$$$$$$$$$$$$$",
"$$$$$$$$$$$$$$$$$$$$$$$$$$$$$$$$$$$     ooooo     $$$$$$$$$$$$$$$$$$$$$$$$$",
"$$$$$$$$$$$$$$$$$$$$$$$$$$$$$$$$$$$     ooooo     $$$$$$$$$$$$$$$$$$$$$$$$$",
"$$$$$$$$$$$$$$$$$$$$$$$$$$$$$$$$$$$     ooooo     $$$$$$$$$$$$$$$$$$$$$$$$$",
"$$$$$$$$$$$$$$$$$$$$$$$$$$$$$$$$$$$     ooooo     $$$$$$$$$$$$$$$$$$$$$$$$$",
"$$$$$$$$$$$$$$$$$$$$$$$$$$$$$$$$$$$$$$$$     $$$$$$$$$$$$$$$$$$$$$$$$$$$$$$",
"$$$$$$$$$$$$$$$$$$$$$$$$$$$$$$$$$$$$$$$$     $$$$$$$$$$$$$$$$$$$$$$$$$$$$$$",
"$$$$$$$$$$$$$$$$$$$$$$$$$$$$$$$$$$$$$$$$     $$$$$$$$$$$$$$$$$$$$$$$$$$$$$$",
"$$$$$$$$$$$$$$$$$$$$$$$$$$$$$$$$$$$$$$$$     $$$$$$$$$$$$$$$$$$$$$$$$$$$$$$",
"$$$$$$$$$$$$$$$$$$$$$$$$$$$$$$$$$$$$$$$$     $$$$$$$$$$$$$$$$$$$$$$$$$$$$$$"
};
