/* XPM */
static char *_ee1664d52bb42adede95108235307cba3NmBaL9weoZDcjA[] = {
/* columns rows colors chars-per-pixel */
"64 64 162 2 ",
"   c black",
".  c black",
"X  c black",
"o  c black",
"O  c black",
"+  c black",
"@  c black",
"#  c black",
"$  c black",
"%  c black",
"&  c black",
"*  c black",
"=  c black",
"-  c black",
";  c black",
":  c black",
">  c gray4",
",  c gray6",
"<  c gray6",
"1  c black",
"2  c black",
"3  c black",
"4  c black",
"5  c black",
"6  c #181818",
"7  c #B4B4B4",
"8  c #848484",
"9  c black",
"0  c black",
"q  c black",
"w  c #141C0B",
"e  c black",
"r  c gray2",
"t  c gray16",
"y  c #405A22",
"u  c black",
"i  c gray2",
"p  c None",
"a  c black",
"s  c gray6",
"d  c #CECECE",
"f  c gray80",
"g  c gray81",
"h  c gray9",
"j  c #DCDDDD",
"k  c white",
"l  c #989999",
"z  c #040602",
"x  c #161F0C",
"c  c #18220D",
"v  c #18210D",
"b  c #2A2B2B",
"n  c #403F3F",
"m  c #DED2D2",
"M  c #FEF0F0",
"N  c #FCEEEE",
"B  c #FFF1F1",
"V  c #A89F9F",
"C  c gray17",
"Z  c #76A63F",
"A  c #81B545",
"S  c #80B444",
"D  c #82B645",
"F  c #EFEFEF",
"G  c #ECE4E4",
"H  c #EFADAD",
"J  c #F0A1A1",
"K  c #F0A2A2",
"L  c #EEBFBF",
"P  c gray92",
"I  c #8CC54B",
"U  c #8CC44A",
"Y  c #8DC44A",
"T  c #8FC74B",
"R  c #435E24",
"E  c gray2",
"W  c #B4B4B4",
"Q  c #FFF6F6",
"!  c #F1A8A8",
"~  c #EF9999",
"^  c #EF9898",
"/  c #F6C4C4",
"(  c #84C14B",
")  c #76BC4C",
"_  c #78BF4D",
"`  c #395B25",
"'  c #FDF5F5",
"]  c #F1A9A9",
"[  c #EF9A9A",
"{  c #F3B5B5",
"}  c #FADEDE",
"|  c #4DAF50",
" . c #4EB151",
".. c #255426",
"X. c #EF9B9B",
"o. c #4EB352",
"O. c #255527",
"+. c #B4B5B5",
"@. c #FEF7F7",
"#. c #122812",
"$. c #050303",
"%. c #AE7574",
"&. c #FBA8A7",
"*. c #F6A5A3",
"=. c #F09C9B",
"-. c #040101",
";. c #A83937",
":. c #F3514E",
">. c #EF5855",
",. c #EF8F8F",
"<. c #090303",
"1. c #A63A38",
"2. c #EE524F",
"3. c #EB5856",
"4. c #EE8E8E",
"5. c #642321",
"6. c #441717",
"7. c #57201F",
"8. c #D75C5B",
"9. c #F16866",
"0. c #EF7372",
"q. c #EC8F8F",
"w. c #E87E7E",
"e. c #130606",
"r. c #CD4644",
"t. c #F3524F",
"y. c #F06361",
"u. c #EF9797",
"i. c #EB8A8A",
"p. c #E57272",
"a. c #2A0F0E",
"s. c #BC413F",
"d. c #D94A48",
"f. c #DD5C5A",
"g. c #ED9393",
"h. c #EE9797",
"j. c #EA8888",
"k. c #E57373",
"l. c #3B1514",
"z. c #1E0A0A",
"x. c #502525",
"c. c #DE7474",
"v. c #E77979",
"b. c #E67676",
"n. c #311919",
"m. c #DD6F6F",
"M. c #E97575",
"N. c #E77374",
"B. c #E57174",
"V. c #512929",
"C. c #AB5656",
"Z. c #B05859",
"A. c #C86E5E",
"S. c #EB8F66",
"D. c #140A0A",
"F. c #050104",
"G. c #6D601C",
"H. c #FFE73E",
"J. c #645C17",
"K. c #FFEC3B",
"L. c #A49826",
"P. c #FFEB3B",
/* pixels */
"                                                                                                                                ",
"                                                                                                                                ",
"                                                                                                                                ",
"                                                                                                                                ",
"                                                                                                                                ",
"                                                                                                                                ",
"                                                                                                                                ",
"                                                                                                                                ",
"                                                . X o O O + @     @ + O O o X .                                                 ",
"                                                # $ a a a a %     % a a a a $ #                                                 ",
"                    & * . = = = = = . -     ; : > , s s s s < : : < s s s s , > : ;     - . = = = = = . * &                     ",
"                    * o 1 2 2 2 2 2 1 3   4 5 1 6 7 d f f g 8 2 2 8 g f f d 7 6 1 5 4   3 1 2 2 2 2 2 1 o *                     ",
"                    . 1 a a a a a a a 9   0 q a h j k k k k l a a l k k k k j h a q 0   9 a a a a a a a 1 .                     ",
"                    = 2 a z x c v v v w e r t b n m M N N B V C C V B N N M m n b t r e w v v v c x z a 2 =                     ",
"                    = 2 a x Z A S S D y u i p F G H J K K J L P P L J K K J H G F p i u y D S S A Z x a 2 =                     ",
"                    = 2 a c A I U Y T R a E W k Q ! ~ ~ ~ ^ / k k / ^ ~ ~ ~ ! Q k W E a R T Y U I A c a 2 =                     ",
"                    = 2 a v S U ( ) _ ` a E W k ' ] ~ [ [ ~ { } } { ~ [ [ ~ ] ' k W E a ` _ ) ( U S v a 2 =                     ",
"                    = 2 a v S Y ) |  ...a E W k ' ] ~ [ [ [ [ X.X.[ [ [ [ ~ ] ' k W E a .. .| ) Y S v a 2 =                     ",
"                    . 1 a v D T _  .o.O.a E +.k @.] ~ [ [ [ [ [ [ [ [ [ [ ~ ] @.k +.E a O.o. ._ T D v a 1 .                     ",
"                    - 3 9 w y R ` ..O.#.a $.%.&.*.=.[ [ [ [ [ [ [ [ [ [ [ [ =.*.&.%.$.a #.O...` R y w 9 3 -                     ",
"                          e u a a a a a a -.;.:.>.,.X.[ [ [ [ [ [ [ [ [ [ X.,.>.:.;.-.a a a a a a u e                           ",
"                      4 0 r i E E E E $.-.<.1.2.3.4.~ ~ [ [ [ ~ ~ [ [ [ ~ ~ 4.3.2.1.<.-.$.E E E E i r 0 4                       ",
"                    ; 5 q t p W W W +.%.;.1.5.6.7.8.9.0.^ X.q.w.w.q.X.^ 0.9.8.7.6.5.1.;.%.+.W W W p t q 5 ;                     ",
"                    : 1 a b F k k k k &.:.2.6.a e.r.t.y.u.X.i.p.p.i.X.u.y.t.r.e.a 6.2.:.&.k k k k F b a 1 :                     ",
"                . # > 6 h n G Q ' ' @.*.>.3.7.e.a.s.d.f.g.h.j.k.k.j.h.g.f.d.s.a.e.7.3.>.*.@.' ' Q G n h 6 > # .                 ",
"                X $ , 7 j m H ! ] ] ] =.,.4.8.r.s.l.z.x.c.v.b.k.k.b.v.c.x.z.l.s.r.8.4.,.=.] ] ] ! H m j 7 , $ X                 ",
"                o a s d k M J ~ ~ ~ ~ [ X.~ 9.t.d.z.a n.m.M.N.B.B.N.M.m.n.a z.d.t.9.~ X.[ ~ ~ ~ ~ J M k d s a o                 ",
"                O a s f k N K ~ [ [ [ [ [ ~ 0.y.f.x.n.V.C.Z.A.S.S.A.Z.C.V.n.x.f.y.0.~ [ [ [ [ [ ~ K N k f s a O                 ",
"                O a s f k N K ~ [ [ [ [ [ [ ^ u.g.c.m.C.D.F.G.H.H.G.F.D.C.m.c.g.u.^ [ [ [ [ [ [ ~ K N k f s a O                 ",
"                + a s g k B J ^ ~ [ [ [ [ [ X.X.h.v.M.Z.F.a J.K.K.J.a F.Z.M.v.h.X.X.[ [ [ [ [ ~ ^ J B k g s a +                 ",
"                @ % < 8 l V L / { [ [ [ [ [ q.i.j.b.N.A.G.J.L.K.K.L.J.G.A.N.b.j.i.q.[ [ [ [ [ { / L V l 8 < % @                 ",
"                    : 2 a C P k } X.[ [ [ ~ w.p.k.k.B.S.H.K.K.P.P.K.K.H.S.B.k.k.p.w.~ [ [ [ X.} k P C a 2 :                     ",
"                    : 2 a C P k } X.[ [ [ ~ w.p.k.k.B.S.H.K.K.P.P.K.K.H.S.B.k.k.p.w.~ [ [ [ X.} k P C a 2 :                     ",
"                @ % < 8 l V L / { [ [ [ [ [ q.i.j.b.N.A.G.J.L.K.K.L.J.G.A.N.b.j.i.q.[ [ [ [ [ { / L V l 8 < % @                 ",
"                + a s g k B J ^ ~ [ [ [ [ [ X.X.h.v.M.Z.F.a J.K.K.J.a F.Z.M.v.h.X.X.[ [ [ [ [ ~ ^ J B k g s a +                 ",
"                O a s f k N K ~ [ [ [ [ [ [ ^ u.g.c.m.C.D.F.G.H.H.G.F.D.C.m.c.g.u.^ [ [ [ [ [ [ ~ K N k f s a O                 ",
"                O a s f k N K ~ [ [ [ [ [ ~ 0.y.f.x.n.V.C.Z.A.S.S.A.Z.C.V.n.x.f.y.0.~ [ [ [ [ [ ~ K N k f s a O                 ",
"                o a s d k M J ~ ~ ~ ~ [ X.~ 9.t.d.z.a n.m.M.N.B.B.N.M.m.n.a z.d.t.9.~ X.[ ~ ~ ~ ~ J M k d s a o                 ",
"                X $ , 7 j m H ! ] ] ] =.,.4.8.r.s.l.z.x.c.v.b.k.k.b.v.c.x.z.l.s.r.8.4.,.=.] ] ] ! H m j 7 , $ X                 ",
"                . # > 6 h n G Q ' ' @.*.>.3.7.e.a.s.d.f.g.h.j.k.k.j.h.g.f.d.s.a.e.7.3.>.*.@.' ' Q G n h 6 > # .                 ",
"                    : 1 a b F k k k k &.:.2.6.a e.r.t.y.u.X.i.p.p.i.X.u.y.t.r.e.a 6.2.:.&.k k k k F b a 1 :                     ",
"                    ; 5 q t p W W W +.%.;.1.5.6.7.8.9.0.^ X.q.w.w.q.X.^ 0.9.8.7.6.5.1.;.%.+.W W W p t q 5 ;                     ",
"                      4 0 r i E E E E $.-.<.1.2.3.4.~ ~ [ [ [ ~ ~ [ [ [ ~ ~ 4.3.2.1.<.-.$.E E E E i r 0 4                       ",
"                          e u a a a a a a -.;.:.>.,.X.[ [ [ [ [ [ [ [ [ [ X.,.>.:.;.-.a a a a a a u e                           ",
"                    - 3 9 w y R ` ..O.#.a $.%.&.*.=.[ [ [ [ [ [ [ [ [ [ [ [ =.*.&.%.$.a #.O...` R y w 9 3 -                     ",
"                    . 1 a v D T _  .o.O.a E +.k @.] ~ [ [ [ [ [ [ [ [ [ [ ~ ] @.k +.E a O.o. ._ T D v a 1 .                     ",
"                    = 2 a v S Y ) |  ...a E W k ' ] ~ [ [ [ [ X.X.[ [ [ [ ~ ] ' k W E a .. .| ) Y S v a 2 =                     ",
"                    = 2 a v S U ( ) _ ` a E W k ' ] ~ [ [ ~ { } } { ~ [ [ ~ ] ' k W E a ` _ ) ( U S v a 2 =                     ",
"                    = 2 a c A I U Y T R a E W k Q ! ~ ~ ~ ^ / k k / ^ ~ ~ ~ ! Q k W E a R T Y U I A c a 2 =                     ",
"                    = 2 a x Z A S S D y u i p F G H J K K J L P P L J K K J H G F p i u y D S S A Z x a 2 =                     ",
"                    = 2 a z x c v v v w e r t b n m M N N B V C C V B N N M m n b t r e w v v v c x z a 2 =                     ",
"                    . 1 a a a a a a a 9   0 q a h j k k k k l a a l k k k k j h a q 0   9 a a a a a a a 1 .                     ",
"                    * o 1 2 2 2 2 2 1 3   4 5 1 6 7 d f f g 8 2 2 8 g f f d 7 6 1 5 4   3 1 2 2 2 2 2 1 o *                     ",
"                    & * . = = = = = . -     ; : > , s s s s < : : < s s s s , > : ;     - . = = = = = . * &                     ",
"                                                # $ a a a a %     % a a a a $ #                                                 ",
"                                                . X o O O + @     @ + O O o X .                                                 ",
"                                                                                                                                ",
"                                                                                                                                ",
"                                                                                                                                ",
"                                                                                                                                ",
"                                                                                                                                ",
"                                                                                                                                ",
"                                                                                                                                ",
"                                                                                                                                "
};
