/* XPM */
static char *c39e70acac53464af713fc0076eed31cuS8F7Xxdpugr6pB8[] = {
/* columns rows colors chars-per-pixel */
"64 64 23 1 ",
"  c #00B7EF",
". c #21C0F1",
"X c #3EC8F3",
"o c #57D0F4",
"O c #6DD6F6",
"+ c #80DBF7",
"@ c #90E0F8",
"# c #9EE4F9",
"$ c #A5E6F9",
"% c #B5EAFA",
"& c #BBECFB",
"* c #C4EEFB",
"= c #CCF1FC",
"- c #D3F3FC",
"; c #DFF6FD",
": c #E3F7FD",
"> c #E7F8FD",
", c #E9F9FE",
"< c #EDFAFE",
"1 c #F3FCFE",
"2 c #F4FCFE",
"3 c #FBFEFF",
"4 c #FCFEFF",
/* pixels */
"                                                                ",
"                                                                ",
"                                                                ",
"                                                                ",
"                                                                ",
"                                                                ",
"                                                                ",
"                                                                ",
"                                                                ",
"              XX..X...X.                                        ",
"            OO.oX...X.  X.X                                     ",
"          XO@+,<*=<==*,&oX.X                                    ",
"         X@X44$3>$&$:&oo>&;O.X                                  ",
"         X<33344444444444-X,  X                                 ",
"         >4X4444444444444442>.O                                 ",
"         ;>44444444444444444$3XX                                ",
"         :44444444444444444444:X                                ",
"         X444444444444444444444X                                ",
"        :,444444444344444444444                                 ",
"        :X:4444444444444444444:                                 ",
"        : >3444444444444444444                                  ",
"         :;24444444444444444 >;                                 ",
"          $>2444444444444442o:;                                 ",
"          ; 2<4444444444443X :;                                 ",
"           ;3;44444444444<4442                                  ",
"             3444444444XX:4:                                    ",
"               4444444XX                                        ",
"                 ,44444;                                        ",
"                   XX>33;                                       ",
"                                                                ",
"                                                                ",
"                                                                ",
"                                                                ",
"                                                                ",
"                                                                ",
"        .                                                       ",
"      .                                                         ",
"     .. $  .                                                    ",
"      $                                                         ",
"     $  4 $ .                                                   ",
"       444 $                               XX                   ",
"      44444$                            XOO  XX                 ",
"     . 444                            XX@OX>>.OX                ",
"    $   4 .                          X@O>44#@>; XX              ",
"      $$%                            X,,4:X4423OoX              ",
"        . $$                         :4,44444444;XX             ",
"                                     : 4444444443:O             ",
"                                      444444444444X             ",
"                                     X444444444444 X            ",
"                                    ;>;4444444444:,X            ",
"                                    ; >344444444444             ",
"                                     ;;:1444444444:             ",
"                                      $34,4444444>              ",
"                                        $4444444XX              ",
"                                          .&4444 ;;             ",
"                                             .X&23;             ",
"                                                                ",
"                                                                ",
"                                                                ",
"                                                                ",
"                                                                ",
"                                                                ",
"                                                                ",
"                                                                "
};
