/* XPM */
static char *e826e560fe9548dbb2d4e0e61304f6ce04BrwI9SQpefF0fT[] = {
/* columns rows colors chars-per-pixel */
"64 64 240 2 ",
"   c None",
".  c #3E1100",
"X  c #5D1900",
"o  c #5A2808",
"O  c #5A3118",
"+  c #622C04",
"@  c #662702",
"#  c #6B3306",
"$  c #763808",
"%  c #6C3512",
"&  c #764519",
"*  c #6C4510",
"=  c #7A4928",
"-  c #79522B",
";  c #843E0B",
":  c #88430C",
">  c #8A4915",
",  c #9C4B14",
"<  c #944B19",
"1  c #975711",
"2  c #A35415",
"3  c #A85619",
"4  c #B35B17",
"5  c #AC5409",
"6  c #9B631C",
"7  c #A8620D",
"8  c #BA690C",
"9  c #B9710E",
"0  c #A96119",
"q  c #BC6C19",
"w  c #B86A19",
"e  c #BD7214",
"r  c #BC731B",
"t  c #BA791B",
"y  c #994D28",
"u  c #8B532C",
"i  c #855727",
"p  c #985627",
"a  c #8A5A38",
"s  c #965B36",
"d  c #864C2C",
"f  c #A55B27",
"g  c #AA5929",
"h  c #896428",
"j  c #986929",
"k  c #98702B",
"l  c #8C6637",
"z  c #976637",
"x  c #9B763D",
"c  c #9D783B",
"v  c #AB6729",
"b  c #B86928",
"n  c #BD7424",
"m  c #B57D20",
"M  c #A56737",
"N  c #B16B36",
"B  c #B96A35",
"V  c #AA7A3B",
"C  c #BA7639",
"Z  c #C37D0F",
"A  c #C36D1C",
"S  c #C56D17",
"D  c #C27416",
"F  c #C47C14",
"G  c #C3721C",
"H  c #C47C1B",
"J  c #CB7B1B",
"K  c #C97917",
"L  c #D3751B",
"P  c #C66B0E",
"I  c #C36C24",
"U  c #C47223",
"Y  c #C57A24",
"T  c #C87728",
"R  c #D27A2A",
"E  c #C77B3B",
"W  c #D77B34",
"Q  c #C26C33",
"!  c #E07A2F",
"~  c #9A7744",
"^  c #986A4A",
"/  c #A47748",
"(  c #B77846",
")  c #AD734F",
"_  c #CB7D44",
"`  c #C27D47",
"'  c #D27D42",
"]  c #C27B54",
"[  c #B3843D",
"{  c #B58C39",
"}  c #B28534",
"|  c #CC8415",
" . c #CD851B",
".. c #CE8B19",
"X. c #D1871A",
"o. c #D38B1B",
"O. c #D98C1F",
"+. c #DA941C",
"@. c #D6931B",
"#. c #CA830F",
"$. c #CC8522",
"%. c #CC842C",
"&. c #CA8727",
"*. c #D48C22",
"=. c #D3842B",
"-. c #D38C2A",
";. c #D98827",
":. c #CC9226",
">. c #D59122",
",. c #DB9424",
"<. c #DF9A23",
"1. c #DC932A",
"2. c #DC9A2C",
"3. c #D5972D",
"4. c #CC843D",
"5. c #CA8636",
"6. c #D28C33",
"7. c #D88838",
"8. c #CA963F",
"9. c #DC9335",
"0. c #DE9B34",
"q. c #D4933C",
"w. c #DA923C",
"e. c #DD9C3B",
"r. c #D39B3D",
"t. c #E28B2A",
"y. c #E29E24",
"u. c #E3932C",
"i. c #E39C2C",
"p. c #E99A2F",
"a. c #E58C36",
"s. c #E29633",
"d. c #E49D34",
"f. c #EA9E34",
"g. c #E5943A",
"h. c #E39D39",
"j. c #EA9E3A",
"k. c #EB9436",
"l. c #F29D39",
"z. c #DEA328",
"x. c #DCA239",
"c. c #E4A12D",
"v. c #EFAB2C",
"b. c #E7A22A",
"n. c #F1AE2D",
"m. c #F1AF27",
"M. c #EEB226",
"N. c #F3B226",
"B. c #F3B32A",
"V. c #F5B82C",
"C. c #E4A233",
"Z. c #EBA434",
"A. c #EFAD33",
"S. c #E4A33A",
"D. c #EBA43C",
"F. c #E2AA3E",
"G. c #ECA93E",
"H. c #F2AD33",
"J. c #F3AD3D",
"K. c #F1A33A",
"L. c #EAB237",
"P. c #F4B434",
"I. c #F5B33B",
"U. c #FBB63D",
"Y. c #F5BB3D",
"T. c #FBBA3D",
"R. c #F6B833",
"E. c #BA8844",
"W. c #B98453",
"Q. c #A9824C",
"!. c #C98746",
"~. c #DB8D45",
"^. c #D78746",
"/. c #CB9743",
"(. c #CB9748",
"). c #D89648",
"_. c #C68454",
"`. c #CA8B57",
"'. c #D68952",
"]. c #C89758",
"[. c #D79959",
"{. c #E49B43",
"}. c #EA9C42",
"|. c #E7984A",
" X c #F49D48",
".X c #E69C56",
"XX c #EA9152",
"oX c #D5A757",
"OX c #D2A44A",
"+X c #E5A342",
"@X c #EBA444",
"#X c #ECAB42",
"$X c #EEAE4D",
"%X c #E9A54C",
"&X c #F2AC42",
"*X c #F3AA47",
"=X c #EDB149",
"-X c #F4B543",
";X c #FBB543",
":X c #FEBC44",
">X c #F3B24C",
",X c #FEB54F",
"<X c #FEBD4C",
"1X c #F4BB47",
"2X c #EBA856",
"3X c #F8A757",
"4X c #EBB55A",
"5X c #F5B253",
"6X c #FBB354",
"7X c #FFBC53",
"8X c #FCB45B",
"9X c #FFBC5A",
"0X c #F2B559",
"qX c #CD966B",
"wX c #DD9F70",
"eX c #D39263",
"rX c #E69A69",
"tX c #CAA567",
"yX c #D9A673",
"uX c #D3A771",
"iX c #E9A668",
"pX c #F3AC67",
"aX c #EAB967",
"sX c #F6BA68",
"dX c #E6AC75",
"fX c #EBB67B",
"gX c #F5BC73",
"hX c #FFC146",
"jX c #FFC34C",
"kX c #FFCA4F",
"lX c #FFC352",
"zX c #FEC759",
"xX c #EDC16D",
"cX c #FAC365",
"vX c #FAC968",
"bX c #FAC674",
"nX c #FFD373",
"mX c #DEAD82",
"MX c #FED483",
"NX c #FECD88",
/* pixels */
"                                                                                                                                ",
"                                                                                                                                ",
"                                                                                                                                ",
"                                                                                                                                ",
"                                                                                                                                ",
"                                                                                                                                ",
"                                                                                                                                ",
"                                                                                                                                ",
"                                                                                                                                ",
"                                                              % s                                                               ",
"                                                          _._ ' ^._ `.a                                                         ",
"                                                        ( '.W ! W 7.!.(                                                         ",
"                                                        `.^.W a.a.a.4.`.^                                                       ",
"                                                        f b S L P S w v                                                         ",
"                                      - l h i h h h j [ /.w.a.k.l.;.6.).[ k l h z l z z                                         ",
"                                  = mXdXfXgXaXaX4XbXvXcX5X9X9X6X,X9X6X0XbXxXbXaXsXgXgXgXdXfXi                                   ",
"                                & `._.[..X).@X#XF.F.F.F.S.D.D.K.K.&X#X@X+X+X+X+X@X@Xe.).).!.`.&                                 ",
"                                + ` E 4.7.9.s.i.Z.C.C.C.C.Z.D.K.D.D.G.D.G.D.G.D.f.j.g.7.5.C C #                                 ",
"                                + _ E 7.7.u.p.i.i.i.c.c.f.f.f.l.j.j.j.f.f.f.f.j.g.g.g.^.^._ ` %                                 ",
"                                @ b b U R ;.;.O.O.O.*.>.>.,.t.t.u.u.1.,.>.*.*.;.a.7.W W Q B g @                                 ",
"                                X , 2 4 I U G J D D H H H K J J K F F Z Z Z F H J A I b 3 , , @                                 ",
"                                ; 2 3 w U A S D H H H H H H J J F F F F Z Z F F Y G I b 4 3 , :                                 ",
"                          a W.C ^.~.{.{.}.g.s.s.d.C.C.C.C.C.C.C.C.C.C.C.i.i.d.0.S.e.w.q.).|.~.^.!.V l                           ",
"                        uXwX2X2X8X6X8X6X6X,X<X<XjXjXjXjXjXjXjXjXlXlXlXlXlXlXlXzXcXcXsX4XpXsX3X8X0X4XuXuX                        ",
"                        W.!.{.}.@X#X#XJ.I.I.I.I.Y.Y.Y.Y.Y.Y.Y.Y.1X<XI.:X;XG.>X0X4XxXbXaXiX[..X3X*X{.!.W.                        ",
"                        ( E 7.9.d.d.Z.Z.A.H.H.H.A.P.P.P.P.P.P.I.L.=X1XJ.;XJ.$XnXk         1 ~.3Xk.7.E V                         ",
"                        M v n Y =.-.-.1.1.,.,.u.i.i.i.i.i.i.i.c.S.C.C.y.i.f.q.6             < b R R b p                         ",
"                        > 2 0 7 Y Y J  . .X.X.X.X.O.*.*.*.*.*.*...:.| >.2.t (.                N B 4 , y                         ",
"                      o : 2 0 r q D D F | | | X.| X.X.O.O.O.O.O.*.2.2.3.r./.h                 u ] g y y o                       ",
"                      M b T T w.9.9.s.d.i.c.b.b.Z.Z.Z.Z.Z.Z.Z.Z.<.C.S.4XoXc                     u ] ] f ^                       ",
"                    yXpX3X8X8X6X9X9X7XlXlXjXjXjXjXjXjXjXjXjXjXjXkXzXcXMXtX                        z wXdXiXqX                    ",
"                    [.~. X X*X*X>X>X-X-XY.Y.Y.Y.Y.T.:X:XhXhXhXhXT.Y.nX{                           % p [.!.[.                    ",
"                    ~.R t.k.D.G.D.D.H.A.H.v.N.N.B.P.P.P.P.P.P.R.B.Y.cX{                           + < E E E                     ",
"                    ~.L t.u.d.S.Z.Z.Z.H.n.n.N.N.N.N.N.N.N.B.B.B.V.L.vX[                           % : ' ^.C                     ",
"                    C R a.a.9.h.C.c.b.v.n.N.N.N.N.N.N.N.V.V.V.V.M.L.vXV                           % < _ E (                     ",
"                    W.E W =.g.9.d.i.c.b.v.v.m.N.N.N.N.N.N.N.N.B.M.Y.cX[                           + > !.` )                     ",
"                      N 4 A T %.%.-.-.1.,.,.<.y.y.y.y.y.y.y.b.b.z.z.x.oX].                      O u ( C s a                     ",
"                      d 2 4 5 q q r H D F Z | | o.o.o.o.o...o...@.:.:.{ ].Q.                    ^ `.f p =                       ",
"                        , 4 4 q Y $.$.$.X.X.@.@.<.<.<.<.<.<.<.<.2.>.3.e.OX[                     = p f p o                       ",
"                        '.^.XX X%X@X*X&X&XU.U.U.T.:X:X:XU.T.T.Y.-X<X>X5X%X5.V                 o # < '.(                         ",
"                        eX3X3X3X3X8X9X7X,X<X<X:X:X:X:X:X:X:XhXhX:XlX7X9X5X%.bX[ *           - & @ 2 iXeX                        ",
"                        _.' ~.|.}.@X@X&X&XJ.U.I.U.U.T.T.T.T.T.T.:XI.;X,X>X6.4XbX(.[ k * i tXuX> $ v _ _.                        ",
"                        ) ( ^.~.w.-.0.d.Z.i.b.y.v.v.n.H.n.n.n.H.H.H.&XK.j.@Xe 0X4X(.OXoXMXNX[.j N _.C )                         ",
"                        d M M N %.H -.-.1.,.<.<.+.+.+.+.+.+.+.+.<.O.i.@.u.1.+X6.m r.OX4XbXbX6 C `.z u l                         ",
"                            d M v n n r r 9 F Z  . . . . .X.X.X.X.X.| #.| *.$.%.q.} :.>X$X1 4.M u a -                           ",
"                                # 0 w w Y H $.$. .$.$.$.$.*.*.*. . .| o.,.H w.6.6.e.x.3.+X7 0 & .                               ",
"                                @ 4.7.w.{.+XD.D.&X&X&X&X&X&XJ.J.J.;XD.D.@X5X{.6Xe.*X&X*.9Xq.!.$                                 ",
"                                $ pX%X%X6X,X7X7X7X7X7X7X7X7X<X<X:X<XlX7X9X6XcX9XzX&XS.9.8X2XpX$                                 ",
"                                  !.5.{.j.f.J.D.#X#X#X=X=X-XI.P.H.P.J.J.&X#X#XG.#X#Xh.6.bX4.!.$                                 ",
"                                  ` C 7.=.s.s.s.d.e.e.e.h.f.f.p.c.f.f.f.d.d.0.0.1.h.9.6.sXE !.+                                 ",
"                                  s M N Q T R R =.=.%.%.=.=.=.=.=.=.%.%.%.&.&.$.H j.$X).).v z                                   ",
"                                    d z N v w q A A D D G G G U U U n n n r e 9 8 8 Y ~.`.i                                     ",
"                                          $ 2 w 8 8 9 e e e e e A A r r r e 8 8 5 5 I iXwX                                      ",
"                                          d ` 4.w.0.d.S.S.+X+X+X}.}.@X@X@Xj.k.a.;.R E rXqX                                      ",
"                                          a yXiX%X%X$X=X>X5X5X5X$X$X$X>X>X$X@X}. X.X'.(                                         ",
"                                            ) ( E.!.8./.(.(.(.(././././././.8.4.C C M                                           ",
"                                                ~ x x c x / / / ~ x ~ / / / z l                                                 ",
"                                                                                                                                ",
"                                                                                                                                ",
"                                                                                                                                ",
"                                                                                                                                ",
"                                                                                                                                ",
"                                                                                                                                ",
"                                                                                                                                "
};
