/* XPM */
static char *_6df75deb0fc48ddcfde8654cc62489ekbj90Ds2my9tog5a[] = {
/* columns rows colors chars-per-pixel */
"68 68 176 2 ",
"   c None",
".  c #090C04",
"X  c #0D1403",
"o  c #0F1903",
"O  c #111705",
"+  c #121C05",
"@  c #121D08",
"#  c #1A1E0C",
"$  c #152205",
"%  c #1A2506",
"&  c #172907",
"*  c #1C2B07",
"=  c #162409",
"-  c #1B250A",
";  c #1C2B0C",
":  c #1E3207",
">  c #1E320C",
",  c #1F2511",
"<  c #222C06",
"1  c #21260F",
"2  c #222C0C",
"3  c #282F0B",
"4  c #213307",
"5  c #24330C",
"6  c #29360D",
"7  c #253A0B",
"8  c #2A3C0D",
"9  c #313C0D",
"0  c #222611",
"q  c #242C12",
"w  c #292F15",
"e  c #243411",
"r  c #293413",
"t  c #263A11",
"y  c #2B3B13",
"u  c #2D3C19",
"i  c #323D14",
"p  c #313F1A",
"a  c #2D420D",
"s  c #32440E",
"d  c #3A450F",
"f  c #33490F",
"g  c #2D4314",
"h  c #2F4915",
"j  c #2F4119",
"k  c #334413",
"l  c #344A14",
"z  c #3A4D14",
"x  c #33441A",
"c  c #394718",
"v  c #354C1B",
"b  c #3A4D1B",
"n  c #365116",
"m  c #3C5216",
"M  c #36511B",
"N  c #3B531C",
"B  c #3D591D",
"V  c #374A20",
"C  c #394C21",
"Z  c #3D5421",
"A  c #3E5A21",
"S  c #404F13",
"D  c #414E1B",
"F  c #425215",
"G  c #42551B",
"H  c #435A1D",
"J  c #4A5C1C",
"K  c #515F1B",
"L  c #45611E",
"P  c #4B611D",
"I  c #51641E",
"U  c #54691F",
"Y  c #415521",
"T  c #435C22",
"R  c #4C5E22",
"E  c #455F28",
"W  c #456324",
"Q  c #486725",
"!  c #486727",
"~  c #4A6726",
"^  c #496424",
"/  c #4B6423",
"(  c #476925",
")  c #486A22",
"_  c #4F6822",
"`  c #4C6B26",
"'  c #4C672A",
"]  c #4F672C",
"[  c #4C6529",
"{  c #4B6928",
"}  c #4B6A29",
"|  c #4C6929",
" . c #4F6B2A",
".. c #4D6C29",
"X. c #516726",
"o. c #526422",
"O. c #536B24",
"+. c #5A6C24",
"@. c #50672A",
"#. c #516D28",
"$. c #516F2B",
"%. c #536D2B",
"&. c #5A6F28",
"*. c #4E7028",
"=. c #4F722A",
"-. c #537125",
";. c #5C7426",
":. c #53702B",
">. c #567029",
",. c #52722D",
"<. c #55702E",
"1. c #55732E",
"2. c #54752C",
"3. c #53732B",
"4. c #58742E",
"5. c #59752C",
"6. c #547B2C",
"7. c #55792D",
"8. c #587D2E",
"9. c #5B7B2D",
"0. c #536F32",
"q. c #586C31",
"w. c #567531",
"e. c #597532",
"r. c #567931",
"t. c #5A7B31",
"y. c #5A7D30",
"u. c #5B7F31",
"i. c #5C7C32",
"p. c #62762C",
"a. c #637C2C",
"s. c #687F2E",
"d. c #617630",
"f. c #627D33",
"g. c #687D32",
"h. c #5F812C",
"j. c #5F8235",
"k. c #5E8134",
"l. c #63842D",
"z. c #608032",
"x. c #658031",
"c. c #608234",
"v. c #628334",
"b. c #638334",
"n. c #648937",
"m. c #638936",
"M. c #698B37",
"N. c #698A36",
"B. c #678639",
"V. c #64853A",
"C. c #678A39",
"Z. c #678A38",
"A. c #6B8F3D",
"S. c #6A8C3F",
"D. c #6B8D3B",
"F. c #708834",
"G. c #758F3A",
"H. c #6B913E",
"J. c #6D913D",
"K. c #71963E",
"L. c #72933D",
"P. c #769B3F",
"I. c #6D8C41",
"U. c #6E8F40",
"Y. c #6B9141",
"T. c #719740",
"R. c #739542",
"E. c #7B9341",
"W. c #759B42",
"Q. c #749A45",
"!. c #7B9C42",
"~. c #7AA146",
"^. c #819844",
"/. c #87A64E",
"(. c #86AD4D",
"). c #8BB04F",
/* pixels */
"                                                                                                                                        ",
"                                                                                                                                        ",
"                                                          p                                                                             ",
"                                                      b %.M w                                                                           ",
"                                                    p N K.T k u                                                                         ",
"                                                    x M ~ W H k i                                                                       ",
"                                                    w T T N H o.z k u                                                                   ",
"                                                W <.] v.T M N N P H 8 e                                                                 ",
"                                              x W W.v.^ M B b v v z a =                                                                 ",
"                                              x M ~ N M M B c v M k a 2                       j t e     e ;                             ",
"                                              q M W N x A.v k T l h k 7 5 2           r     j W B t   n L h $                           ",
"                                                ^ ~ B g A.j Y v k l v B 7 &       u A B v x ~ 9.B M %.7.) : o                           ",
"                                            W ,.H.{ A k E x E k l m h a 7 $ -   x ~ n.y.1.y.=.l t v n N 8 : @                           ",
"                        u v x r   u r     p ~ A.%.A T M Y ' k l H k s 8 * + # c :.n.A g g M g t t 7 l g 7 : @                           ",
"                  x Z  .t.j.W x x T M t 1 r B Y v M v x B.Y k H G l f a % % i >.N.B M j g M 7 > A 1.H l k 7 =                           ",
"          C <.4.z.C.T.T.t.{ ^ W  .W Y k k T ^ W v g j t Y D k X.z z m a 6 y G x.^ N Z g t v > E U.M h a 8 7 -                           ",
"          T J.~.C.t.{ T T v j M u.C.D.L.!.P.M.z.W v W _ z k G k z H z m a 5 8 R H H M M ; j Z [ T W k a a 7 $                           ",
"          b ^ ..~ ^ T A T x y N V.1.>.>._ ^ H G L -.l.l.z 5 y 8 z G s f z 4 6 G / H x x ; w.R.V.u. .H m k 7 $                           ",
"          y j W ..T T b B b y v W ~ ^ / H ^ G G H H H m l z - 6 b 8 a 8 a * i G X.M > y ! e...3.B k h 8 8 * @                           ",
"            , =...T Y x k Y t y :.T Y H G _ G G H m m m l H 7 a 5 5 8 s 8 $ y G X.5 ;  .i.A =.H W H v 8 * o -                           ",
"          Z ,.J.t.t.S.U.x x Y t.D.~  .N z / m P G m m m H -.l.-.4 < 8 l 4 @ y G G 2  .Q.] ' T g g 8 5 5 % 0                             ",
"          A 8.k.1.4.4.%.@.b ~ J.t.W ^ f.b G z / m m H l l l n n 4 % c 5 4 + c i k _ w.l ^ T j 8 5 5 5 ; @ - q                           ",
"          y j W 1.1.9.v.e.%.b W 3.:.W G 5.k k / z z P l k s l a 7 & ; 4 * + c 3 ^ (.V.' T v y t g B m t k m k r                         ",
"            e x 3.8.>.>.>.G y ~ 7.:.W ~ u._ 6 H k m P l a k l 8 a : % * 5 $ k x K.e.W ~ y 5 l ` 9...W :.b.9.N m j                       ",
"              v y.9.5.:.~ Y T b.8...~ W v A G c 6 T c k k H 8 8 7 7 $ 7 @ % y 4.^ v b e 5 B =.l g t g g c B B 5 2                       ",
"            u W C.8.1.1.%.Y W n.7.=.} ..! ,.Y.~ - G 7 g y H 7 8 a 7 $ % X ; k D.%.M g B ` B t 5 g 5 g Z v.~ g ;                         ",
"            u M ..7.8.3.` B v W :...( W W v v ,.N v $ 5 m k 5 7 m 4 $ + X r _ b 7 B 7.B > g ; e 5 E ! Y B M ; w                         ",
"              y g ~ 3.3...H k g ~ ` ( B A W A w.Q.r.; - H 5 5 h l 4 $ X - c b t B -.g 5 ; ; ; v W T t.1.W t ;                           ",
"                e t T =...^ M t j ^ W ( ( ( W x v t...k y % 5 H 5 : + X y _ H a -.8 k - y v Y.V.j.j...N t ; -                           ",
"                  e 5 M W H v y ; ; t M B N M N {  .R.).N.t * z 4 * o O r k 8 9.a 7 y x k.%.,.y.7.W B t ; e r b                         ",
"                    q ; ; ; ; ; e ; = t B B A N l N z 5 G 4.^ c & % X . % a 9.N 8 t ~ i.t.V.,.T M M t ; x ~ 3./ N                       ",
"                        q q   - ; t t e v M l h h k B _ O.N.i.f.c $ % - 8 9.k k t i.i.A ^ ^ M g e ; = e v T :...u u                     ",
"                              # v 1. .e ; ; = = 2 k k g g g y 7 N _ _ c n H k m 4.#.v.u.^ v g = - - e u M W ` u.%.H x                   ",
"                            T Z u.,.x t ; = = t < $ 2 2 & 7 H 9.h.k 5 7 _ z #.!.5.%.T x g e = = x C e.' e.V.8.>.M e r                   ",
"                          E v.T.,.M g y y > 5 ; y @ X + c ;.b.M g y T 6 k T O.H ^ H y = = ; y Y %.w.w.Y.u.%._ e e r                     ",
"                        T y.C.W Z Z g t e y @ $ ; N c P b.O.y 6 - N / % r ; % - - - ; e u v v Z ! ,.1. .<.b 2 r                         ",
"                      C ,.A.W v x g j - X ; M G %.H o.N.H k g 5 y ` R 6 @ X 2 e y k k t g t t y v Y T Z t 5 q                           ",
"                    V ,.H.T x g t e e W W r.Q.T R N z.^ G H c k z.G O.5 X r c b k b J #.b.9.7 ; j t ; ; 5 g 7 t                         ",
"                  Z =.T...T A E u.w.w.R.,.0.W A b / ` M l 7 ; #.x.G 8 6 6 T T f.c 6 c z m l 7 $ @ = > 5 t v L a 8 r                     ",
"                  M W } { j.e.i.V.j.S.k. .~ x =.b.n.N l 5 ; c 9.>.L 7 < z _ H k 9.H k M N h t = = ; t l c v l H f 8 t                   ",
"                  e e x } ~ :.y.,.w.! A Y e N m.=.B N M y x D.^ 5.m 7 $ k ` H _ H W.y ; e e h > > e x g h k k a n m 7 5                 ",
"                      j W ^ { ^ ^ W N M t ; B ,.B v g ; 5 v.L./ _ h 7 $ t H W 9.k T u.b M M l n 7 & ; t h h s m m v 7 $ 2               ",
"                    q ; ; j N W ^ B v t + t ..` A v g e w.f.B.O.m 8 % + k ^ #./ H R f.@.; t g l l * - v ^ ^ R l a a 7 $ 2               ",
"                      q , q e v v y ; o t ` H.W N g t ..Y.>.a.k 5 $ + % b O.5.J _ #.z b.y 5 7 7 7 : ; - 2 8 a a a a 7 e                 ",
"                            2 ; - ; % ; M j.=.A x y T <.B.>._ 7 $ 6 2 3 G ;.O.o.o.G k x.a.T T M c 7 $ Y x k G H m k m 7 5 q             ",
"                              # x <.i.' A k.~ B v  .i.>.4.G G < y b c i N O.#.o.o.P J G !.k 8 8 5 5 @ e R.' 6 5 8 a s z 4 -             ",
"                                ~ R.<.Y T y.W v W t.w.` / z l % 6 H R 3 k z _ O.o.P >.z O.p.F 8 5 $ X r B.e.f.G k a 8 : + +             ",
"                              C ..k.~ M W 8.^ b.%.j.^ H G k * ; G X.H y i G G #.o.P #.z o.g.z F g ; 5 k 4.#.%./.5.m c 8 q q             ",
"                              v T :.W M ..1...u.W  .N m z % < J / o.P H G o.o.;.U O.J J I ;.G s 7 * 6 i / J / a./ H 8 7 6 q             ",
"                                Y 3.T B :...W ~ M v j y % 8 p.>.+.O.o.p.9 o.G I I I J +.K p.F.z 8 * $ 7 z G k k l 8 s 8 & -             ",
"                              Z y.u.Y x t e r t - r - % 5 J p.a.;.O.s.G 9 R 6 7 z P J O.J +.;.F 6 o @ 6 8 l 6 5 5 * % $ o 2             ",
"                            Z 3.~.8.T j e t r ; r N t k 8 F >.a.;.s.I J D p.G 9 6 z J G m J K s % % + + @ @ @ = % ; 2 3 3               ",
"                            v =.k.:. ._ N y q.Y %.H c G 8 k z ;.a.>.O.o.o.^.G R 5 2 5 8 s S F s % 0 q q q r r                           ",
"                            x ~ 7.1.:./ b [ %.%.4.m z G s % 6 ;.a.;.O.s.S E.z H z < % $ $ < 8 8 + w                                     ",
"                            j T ,.3..._ ^ L.f.4.X.m v l 5 % J ;.a.;.s.U G s.O.z k 8 % X X - % $ 2                                       ",
"                            u N 3.:.%.4.f.R.5.H H c k 2 % r G J ;.a.O.U +.G.f.z 8 8 - 1 ;     r                                         ",
"                              M :.3.:.5.O.g.P b t - $ - u     z G O.I P +.d.%.z 8 5 2                                                   ",
"                              M :.:.-.../ %.H 6 q   r           i k H P J #.k m 8 8 % u                                                 ",
"                              v ....^ b b H k - r                 6 y G F J s 9 9 < $ i                                                 ",
"                              v ..~ j r r 5 ; 3                     3 8 G J d i i % r                                                   ",
"                              x N y ; r   r r                         6 s F s 3                                                         ",
"                              2 ; ; r                                 u 3 9 < 2                                                         ",
"                                                                        3 % <                                                           ",
"                                                                                                                                        ",
"                                                                                                                                        ",
"                                                                                                                                        ",
"                                                                                                                                        ",
"                                                                                                                                        "
};
