/* XPM */
static char *result[] = {
/* columns rows colors chars-per-pixel */
"64 64 3 1 ",
"  c black",
". c #A8570A",
"X c #FF7E00",
/* pixels */
"XXXXXXXXXXXXXXXXXXXXXXXXXXXXXXXXXXXXXX XXXXXXXXXXXXXXXX XXXXXXXX",
"XXXXXXXXXXXXXXXXXXXXXXXXXXXXXXXXXXXXX  XXXXXXXXXXXXXXXX XXXXXXXX",
"XXXXXXXXXXXXXXXXXXX..XXXXXXXXXXXXXXXX XXXXXXXXXXXXXXXX XXXXXXXXX",
"XXXXXXXXXXXXXXXX...X.XXXXXXXXXXXXXXX XXXXXXXXXXXXXXXX  XXXXXXXXX",
"XXXXXXXXXXXXXX..XXXX.XXXXXXXXXXXXX  XXXXXXXXXXXXXXXX XXXXXXXXXXX",
"XXXXXXXXXXXXX..XXXX.XXXXXXXXXXXXX XXXXXXXXXXXXXXXXXX XXXXXXXXXXX",
"XXXXXXXXXXXXX.XXXXX.XXXXXXXXXXXX XXXXXXXXXXXXXXXXXX XXXXXXXXXXXX",
"XXXXXXXXXXXXX.XXXXX.XXXXXXXXXX  XXXXXXXXXXXXXXXXXX XXXXXXXXXXXXX",
"XXXXXXXXXXXXX...XXX.XXXXXXXXX XXXXXXXXXXXXXXXXXXXX XXXXXXXXXXXXX",
"XXXXXXXXXXXXXXXX.XX.XXXXXXXX  XXXXXXXXXXXXXXXXXXXX XXXXXXXXXXXXX",
"XXXXXXXXXXXXXXX.XXX.XXXXXXXX   XXXXXXXXXXXXXXXXXXX XXXXXXXXXXXXX",
"XXXXXXXXXXXXXX.XXXX.XXXXXXX XXX  XXXXXXXXXXXXXXXXXX XXXXXXXXX   ",
"XXXXXXXXXXXXXX.XXXX.XXXXXXX XXXXX  XXXXXXXXXXXXXXXX XXXXXXXX  XX",
"XXXXXXXXXXXXXXXXXXX.XXXXXXX XXXXXXX XXXXXXXXXXXXXXX XXXXXXX XXXX",
"XXXXXXXXXXXXXXXXXXX.XXXXXXX XXXXXXXX XXXXXXXXXXXXXXX XXXX  XXXXX",
"XXXXXXXXXXXXXXXXXXX..XXXXXX XXXXXXXXX XXXXXXXXXXXXX XX   XXXXXXX",
"      XXXXXXXXXXXXXX..XXXX XXXXXXXXXXX XXXXXXXXXXXX   XXXXXXXXXX",
"XXXXXX                XXXX XXXXXXXXXXXX XXXXXXX    XXXXXXXXXXXXX",
"XXXXXXXXXXXXXXXXX XX       XXXXXXXXXXXX XXXXX  XXXXXXXXXXXXXXXXX",
"XXXXXXXXXXXXXXXXX XXXXXXXXXXXXXXXXXXXXXX X   XXXXXXXXXXXXXXXXXXX",
"XXXXXXXXXXXXXXXXX XXXXXXXXXXXXXXXXXXXXXX  XXXXXXXXXXXXXXXXXXXXXX",
"XXXXXXXXXXXXXXXX  XXXXXXXXXXXXXXXXXXXXXX XXXXXXXXXXXXXXXXXXXXXXX",
"XXXXXXXXXXXXXXXX XXXXXXXXXXXXXXXXXXXXXXXX XXXXXXXXXXXXXXXXXXXXXX",
"XXXXXXXXXXXXXXXX XXXXXXXXXXXXXXXXXXXXXXXX XXXXXXXXXXXXXXXXXXXXXX",
"XXXXXXXXXXXXXXX XXXXXXXXXXXXXXXXXXXXXXXXX XXXXXXXXXXXXXXXXXXXXXX",
"XXXXXXXXXXXXXXX XXXXXXXXXXXXXXXXXXXXXXXXX XXXXXXXXXXXXXXXXXXXXXX",
"XXXXXXXXXXXXXXX XXXXXXXXXXXXXXXXXXXXXXXXX XXXXXXXXXXXXXXXXXXXXXX",
"XXXXXXXXXXXXXXX XXXXXXXXXXXXXXXXXXXXXXXXX XXXXXXXXXXXXXXXXXXXXXX",
"XXXXXXXXXXXXXX XXXXXXXXXXX..X....XXXXXXXX XXXXXXXXXXXXXXXXXXXXXX",
"XXXXXXXXXXXXX XXXXXXXXXXXX...XXXX.XXXXXXXX XXXXXXXXXXXXXXXXXXXXX",
"XXXXXXXXXXXXX  XXXXXXXXXXXXXXXXXX.XXXXXXXX XXXXXXXXXXXXXXXXXXXXX",
"XXXXXXXXXXXX X XXXXXXXXXXXXXXXXXX.XXXXXXXXX XXXXXXXXXXXXXXXXXXXX",
"XXXXXXXX.X.. XX   XXXXXXXXXXXXXX.XXXXXXXXXX XXXXXXXXXXXXX       ",
"XXXXXXX.... XXXX   XXXXXXXXXXXX.XXXXXXXXXXX XXXXXXXXXXXX  XXXXXX",
"XXXXXXX. XXXXXXXXXX  XXXXXXXXX.XXXXXXXXXXXX XXXXXXXXXXX XXXXXXXX",
"XXXXX.. XXXXXXXXXXXXX XXXXXXXX.XXXXXXXXXXXX XXXXXXXXXX XXXXXXXXX",
"XXXXX. X  XXXXXXXXXXXX XXXXXXXXXXXXXXXXXXXX XXXXXXXXXX XXXXXXXXX",
"XXXX.. XXX XXXXXXXXXXXX XXXXXXXXXXXXXXXXXXXX XXXXXXXXX XXXXXXXXX",
"XXXX.X XXXX  XXXXXXXXXXX XXXXXXXXXXXXXXXXXXX XXXXXXXX  XXXXXXXXX",
"XXX.XX XXXXXX XXXXXXXXXXX  XXXXXXXXXXXXXXXXXX XXXXXX  XXXXXXXXXX",
"XX..XX XXXXXX XXXXXXXXXXXXX XXXXXXXXXXXXXXXXX XXXXX XXXXXXXXXXXX",
"X..XXX XXXXXXX XXXXXXXXXXXXX XXXXXXXXXXXXXXXX      XXXXXXXXXXXXX",
"X.XXXX XXXXXXX XXXXXXXXXXXXX XXXXXXXXXXXXXX   XXXXXXXXXXXXXXXXXX",
"X.XXXX XXXXXXXX XXXXXXXXXXXXX XXXXXXXXXX   XX XXXXXXXXXXXXXXXXXX",
".XXXXX XXXXXXXX XXXXXXXXXXXXX  XXXXXX   XXXXX XXXXXXXXXXXXXXXXXX",
".XXXXX XXXXXXXX XXXXXXXXXXXXXX X     XXXXXXXX XXXXXXXXXXXXXXXXXX",
"XXXXX XXXXXXXXXX XXXXXXXXXXXXXX XXXXXXXXXXXXX XXXXXXXXXXXXXXXXXX",
"XXXX  XXXXXXXXXX XXXXXXXXXXXXXX XXXXXXXXXXXXXX XXXXXXXXXX.....XX",
"    XXXXXXXXXXXX XXXXXXXXXXXXXX XXXXXXXXXXXXXX XXXXXX....XXXXX.X",
"XXXXXXXXXXXXXXXX XXXXXXXXXXXXXX XXXXXXXXXXXXXX XXXXXX.XXXXXXXXX.",
"XXXXXXXXXXXXXXX XXXXXXXXXXXXXXXX XXXXXXXXXXXXX XXXXXXXXXXXXXXXXX",
"XXXXXXXXXXXXXXX XXXXXXXXXXXXXXXXX XXXXXXXXXXXXX XXXXXXXXXXXXXXXX",
"XXXXXXXXXXXXXXX XXXXXXXXXXXXXXXXX XXXX.XXXXXXXX XXXXXXXXXXXXXXXX",
"XXXXXXXXXXXXXXX XXXXXXXXXXXXXXXXX XXXXX.XXXXXXXX XXXXXXXXXXXXXXX",
"XXXXXXXXXXXXXXXX XXXXXXXX.XXXXXXX XXXXX.XXXXXXXX  XXXXXXXXXXXXXX",
"XXXXXXXXXXXXXXXX XXXXXXX.XXXXXXXXX XXXXX.XXXXXXXX XXXXXXXXXXXXXX",
"XXXXXXXXXXXXXXXX XXXXXXX.XXXXXXXXX XXXXX.XXXXXXXX XXXXXXXXXXXXXX",
"XXXXXXXXXXXXXXXX XXXXXX.XXXXXXXXXX XXXXX.XXXXXXXX XXXXXXXXX.XXXX",
"XXXXXXXXXXXXXXXXX XXXXX.XXXXXXXXXXX XXXXX.XXXXXXX  XXXXXXXX.XXXX",
"XXXXXXXXXXXXXXXXX XXXX.XXXXXXXXXXXX XXXXX.XXXXXXXX XXXXXXXX.XXXX",
"XXXXXXXXXXXXXXXX  XXXX.XXXXXXXXXXXX XXXXX.XXXXXXXX XXXXXXXX.XXXX",
"XXXXXXXXXXXXXXX  XXXXX.XXXXXXXXXXXXX XXXX...XXXXXX  XXXXXXX.XXXX",
"XXXXXXXXXXXXXXX XXXXXX.XXXXXXXXXXXXXX XXXX.XXXXXXXX XXXXXXXX.XXX",
"XXXXXXXXXXXXXX XXXXXX...XXXXXXXXXXXXX XXXXXXXXXXXXX XXXXXXXX.XXX"
};
